<svg width="139" height="134" fill="none" xmlns="http://www.w3.org/2000/svg"><path d="M107.632 80.313a31.773 31.773 0 003.533-14.613c0-8.52-3.312-16.524-9.334-22.546a32.228 32.228 0 00-6.172-4.83V3.615c0-.889-.722-1.616-1.616-1.616H2.616A1.619 1.619 0 001 3.616v100.513s0 .017.005.027c0 .097 0 .194.027.291 0 .011 0 .022.011.033.016.08.043.161.07.237.01.032.027.059.038.086.032.059.059.118.097.177.016.022.032.049.048.076.049.07.108.14.173.205v.01l26.978 26.973c.07.076.156.146.242.205.033.022.065.032.097.054.06.032.119.07.183.097.044.016.087.027.13.038.059.016.113.037.172.054.097.016.2.026.302.026 0 0 .01.006.016.006h64.449c.894 0 1.616-.727 1.616-1.616v-35.3l24.905 24.905a9.68 9.68 0 006.867 2.838 9.691 9.691 0 006.867-2.838c3.786-3.786 3.786-9.948 0-13.734l-26.666-26.666h.005z" fill="#EBDDFD"/><path d="M2.626 103.705V3.196h91.427v35.645m.001 52.868v38.973H29.605m76.815-49.728l26.742 26.742a8.098 8.098 0 01-11.451 11.45L94.97 92.405" stroke="#414B54" stroke-width="5" stroke-linecap="round" stroke-linejoin="round"/><path d="M79.29 95.545c16.718 0 30.27-13.552 30.27-30.27 0-16.717-13.552-30.27-30.27-30.27-16.717 0-30.269 13.553-30.269 30.27 0 16.718 13.553 30.27 30.27 30.27zm-49.685 35.138v-26.979H2.626l26.979 26.979z" stroke="#414B54" stroke-width="5" stroke-linecap="round" stroke-linejoin="round"/><path d="M85.108 86.4V55.897H73.776v30.68m-9.862-5.979v-16.74H57.36M40.453 53.857v36.744M30.063 78.1v12.5m-10.39-20.87V90.6m1.611-56.822l13.077-8.256m4.976-.152l10.94 6.038m4.728-.28l13.153-9.41M16.113 35.27a2.802 2.802 0 015.601 0c0 1.545-1.254 2.8-2.8 2.8a2.802 2.802 0 01-2.8-2.8zM34.01 24.164a2.802 2.802 0 015.601 0 2.8 2.8 0 01-2.8 2.8 2.802 2.802 0 01-2.8-2.8zm15.922 8.596c0-1.545 1.255-2.8 2.8-2.8a2.802 2.802 0 012.801 2.8 2.802 2.802 0 01-2.8 2.801 2.802 2.802 0 01-2.801-2.8zM67.63 20.087c0-1.546 1.255-2.8 2.8-2.8a2.802 2.802 0 010 5.6 2.802 2.802 0 01-2.8-2.8zM13.274 90.6h48.862m-9.404 17.586h24.544m-24.544 9.01H67.63" stroke="#414B54" stroke-width="5" stroke-linecap="round" stroke-linejoin="round"/></svg>