<svg width="165" height="113" fill="none" xmlns="http://www.w3.org/2000/svg"><path d="M12.244 41.516v12.991c0 2.267.961 4.45 2.642 5.985l50.06 45.684s0 .006.013.006l.018.018a8.1 8.1 0 006.25 2.049l24.75-2.52v4.612c0 .732.435 1.384 1.106 1.669a1.796 1.796 0 001.97-.369l6.421-6.233 6.305 4.836a1.81 1.81 0 002.914-1.438v-4.982l47.134-4.8a1.812 1.812 0 001.62-1.988 1.81 1.81 0 00-1.982-1.62l-2.503.253a23.87 23.87 0 01-.919-1.571v-21.37c.32-.599.671-1.191 1.052-1.765l2.732-.285a1.813 1.813 0 001.04-3.144l-50.066-45.689a1.803 1.803 0 00-1.403-.465l-13.717 1.396L75.43 2.47s-.036-.024-.055-.042c-.036-.03-.078-.06-.12-.091-.055-.036-.11-.079-.17-.109-.042-.024-.09-.042-.133-.066-.06-.024-.12-.055-.187-.073-.048-.018-.103-.03-.157-.042-.06-.012-.121-.03-.176-.036a1.7 1.7 0 00-.175-.006.97.97 0 00-.187 0c-.018 0-.03-.007-.049 0L7.674 8.763C3.98 8.86 1 11.89 1 15.606v12.629c0 1.916.816 3.766 2.237 5.06l9.007 8.221z" fill="#EBDDFD"/><path d="M16.119 58.684a6.292 6.292 0 01-2.056-4.642V40.234M97.07 24.19l14.521-1.481 50.067 45.69-91.875 9.358a6.288 6.288 0 00-5.653 6.257v15.7c0 3.723 3.223 6.631 6.928 6.256l26.75-2.726m15.083-1.53l48.767-4.969M16.12 58.685l50.06 45.677M4.47 31.487a5.05 5.05 0 01-1.644-3.724V15.134a5.039 5.039 0 015.041-5.041M39.2 38.687L16.44 17.916m-8.573-7.822l66.347-6.759" stroke="#414B54" stroke-width="5" stroke-linecap="round" stroke-linejoin="round"/><path d="M114.366 39.975l-66.86 6.813a5.042 5.042 0 00-4.534 5.017v12.592a5.044 5.044 0 005.556 5.018l65.838-6.704M2.826 27.763V15.135M4.47 31.487l40.146 36.634m67.955-5.235a19.72 19.72 0 010-22.73M97.802 87.931v21.938l7.545-7.326 7.544 5.791V86.39m3.996-.406l-23.08 2.352M74.214 3.335l40.152 36.64" stroke="#414B54" stroke-width="5" stroke-linecap="round" stroke-linejoin="round"/></svg>