<svg width="145" height="143" fill="none" xmlns="http://www.w3.org/2000/svg"><path d="M23.694 135.219h104.951v5.386c0 .877.713 1.59 1.59 1.59.877 0 1.59-.713 1.59-1.59v-5.386h12.241V52.816h-1.589c.882 0 1.589-.713 1.589-1.59 0-.876-.707-1.59-1.589-1.59h-38.75V32.27h2.774l1.584 1.245c.29.23.635.344.98.344.471 0 .937-.211 1.251-.604a1.595 1.595 0 00-.266-2.237L73.652 2.345c-.58-.46-1.39-.46-1.965 0L35.283 31.017a1.594 1.594 0 00-.26 2.237 1.585 1.585 0 002.23.26l1.584-1.245h2.509v17.367H2.59c-.877 0-1.59.714-1.59 1.59 0 .877.713 1.59 1.59 1.59v12.151a1.583 1.583 0 00-1.076 1.5v7.786c0 .695.453 1.281 1.076 1.499v59.467h10.924v5.386c0 .877.713 1.59 1.59 1.59.876 0 1.59-.713 1.59-1.59v-5.386h7z" fill="#FFF0CD"/><path d="M36.28 31.797l36.4-28.679 36.398 28.679m-66.137-5.253v96.415m59.207-96.627v96.627M61.107 61.001V46.856h3.664m15.814 14.145V46.856h3.67M61.107 86.362V72.216h3.664m15.814 14.146V72.216h3.67m34.572 1.565v-7.786h3.67m15.815 7.786v-7.786h3.669m-57.726 56.964v-22.742H61.107v22.742m41.041-72.204h40.34M3.116 73.781v-7.786H6.78m15.814 7.786v-7.786h3.67m16.677-15.24H2.601m33.679 72.204h72.797m-85.371 10.198h97.951m8.59-11.16c4.848 0 8.778-7.916 8.778-17.682 0-9.766-3.93-17.682-8.778-17.682-4.847 0-8.777 7.916-8.777 17.682 0 9.766 3.93 17.682 8.777 17.682zm0 .001v18.136M15.116 121.997c4.847 0 8.777-7.916 8.777-17.682 0-9.766-3.93-17.682-8.777-17.682-4.848 0-8.778 7.916-8.778 17.682 0 9.766 3.93 17.682 8.778 17.682zm-.001.001v18.136" stroke="#414B54" stroke-width="5" stroke-linecap="round" stroke-linejoin="round"/><path d="M72.679 33.72a6.1 6.1 0 100-12.2 6.1 6.1 0 000 12.2z" stroke="#414B54" stroke-width="5" stroke-linecap="round" stroke-linejoin="round"/></svg>