<svg width="131" height="146" fill="none" xmlns="http://www.w3.org/2000/svg"><path d="M127.703 106.571h-2.113v-90.86c0-2.03-1.642-3.68-3.671-3.68H75.545V2.295c0-.716-.58-1.295-1.289-1.295H57.088c-.71 0-1.288.58-1.288 1.295v9.736H9.425a3.677 3.677 0 00-3.671 3.68v90.86H3.64a.642.642 0 00-.641.647v7.038c0 .355.287.647.641.647h25.034l-6.29 23.498a1.942 1.942 0 001.872 2.443h8.82c.876 0 1.648-.59 1.872-1.44l6.56-24.501h51.084l6.556 24.501c.23.85.996 1.44 1.872 1.44h8.819a1.938 1.938 0 001.873-2.443l-6.285-23.498h22.275a.65.65 0 00.646-.647v-7.038a.647.647 0 00-.646-.647z" fill="#FFF0CD"/><path d="M127.703 108.894H3.647a.647.647 0 00-.647.647v7.037c0 .355.287.648.647.648h25.028l-6.29 23.498a1.942 1.942 0 001.872 2.443h8.82c.876 0 1.648-.59 1.872-1.441l6.555-24.506h51.084l6.556 24.506c.23.851.996 1.441 1.872 1.441h8.819a1.937 1.937 0 001.872-2.443l-6.289-23.498h22.274a.647.647 0 00.647-.648v-7.037a.647.647 0 00-.647-.647h.011z" stroke="#414B54" stroke-width="5" stroke-linecap="round" stroke-linejoin="round"/><path d="M41.343 69.896c-.058 0-.11 0-.167-.01a70.083 70.083 0 00-12.46-.804l-2.164.052 4.85-6.84c1.487-2.093 3.02-4.254 4.225-6.53.401-.757.782-1.572.87-2.376.131-1.185-.37-2.48-.813-3.623-.161-.428-.35-.908-.62-1.159-.365-.344-1.064-.443-2.123-.302-1.977.255-4.407 1.237-4.762 3.163a1.084 1.084 0 11-2.133-.391c.564-3.065 3.787-4.553 6.613-4.918.642-.084 2.592-.34 3.88.872.631.59.929 1.352 1.163 1.963.506 1.305 1.132 2.928.944 4.636-.125 1.169-.605 2.203-1.11 3.153-1.268 2.401-2.848 4.625-4.37 6.776l-2.369 3.336c3.578.016 7.171.303 10.702.851a1.084 1.084 0 01-.167 2.156l.01-.005zm13.445-9.616a41.32 41.32 0 01-9.325-1.07 1.082 1.082 0 01.49-2.11 38.878 38.878 0 0012.037.883 1.09 1.09 0 011.168.992 1.086 1.086 0 01-.99 1.17c-1.127.093-2.254.14-3.38.14v-.005z" fill="#414B54"/><path d="M51.45 65.135c-.042 0-.083 0-.125-.006a1.078 1.078 0 01-.95-1.2c.376-3.253.658-6.563.84-9.83a1.076 1.076 0 011.143-1.024c.6.031 1.053.543 1.022 1.143-.183 3.31-.47 6.662-.85 9.956-.063.553-.532.96-1.075.96h-.005zm23.96-5.915h-.016a566.969 566.969 0 00-11.15-.047h-1.435L66.554 45.7a1.08 1.08 0 011.335-.752c.579.162.912.757.75 1.336l-2.977 10.718c3.249-.01 6.524.01 9.758.053a1.085 1.085 0 01-.016 2.172l.005-.006z" fill="#414B54"/><path d="M68.994 70.92c-.036 0-.073 0-.115-.006a1.084 1.084 0 01-.964-1.19l1.663-16.064a1.083 1.083 0 112.154.225L70.07 69.949a1.08 1.08 0 01-1.075.97zm19.104-15.73h-.063l-7.113-.407a1.084 1.084 0 01.12-2.166l7.113.406c.6.037 1.054.549 1.022 1.144a1.082 1.082 0 01-1.08 1.023zm-.308 6.155h-8.047a1.085 1.085 0 110-2.172h8.047c.6 0 1.085.485 1.085 1.086 0 .6-.485 1.086-1.085 1.086zm12.689 8.175c-1.8 0-3.599-.365-5.252-1.07-1.612-.69-2.65-1.582-3.17-2.74-.402-.894-.439-1.812-.444-2.752 0-.976.01-1.979.088-2.986a1.093 1.093 0 01.115-1.16c.13-1.023.34-2.046.673-3.043a13.58 13.58 0 013.4-5.43c2.342-2.276 6.4-3.94 9.779-2.218a1.083 1.083 0 01-.98 1.932c-2.431-1.238-5.482.083-7.286 1.837a11.437 11.437 0 00-3.218 5.9c3.86-.872 8.313.85 10.337 4.296.818 1.4 1.1 3.138.73 4.537-.271 1.018-.866 1.811-1.716 2.297-.767.438-1.622.538-2.279.58-.256.015-.511.02-.767.02h-.01zm-6.624-9.386c-.073.944-.083 1.89-.083 2.813 0 .726.026 1.368.25 1.87.282.626.976 1.18 2.05 1.639a11.28 11.28 0 005.043.877c.423-.026.96-.079 1.335-.298.35-.198.574-.517.699-.97.224-.836.021-1.99-.501-2.877-1.705-2.908-5.658-4.219-8.793-3.05v-.004z" fill="#414B54"/><path d="M121.919 14.36H75.545V4.617c0-.716-.58-1.29-1.289-1.29H57.093c-.715 0-1.288.58-1.288 1.29v9.741H9.43a3.672 3.672 0 00-3.671 3.676v86.411a3.672 3.672 0 003.671 3.675h75.116v-4.876c0-.814.657-1.477 1.476-1.477h24.293c.813 0 1.476.658 1.476 1.477v4.876h10.138a3.672 3.672 0 003.672-3.675v-86.41a3.672 3.672 0 00-3.672-3.676h-.01zm-5.508 81.811a3.672 3.672 0 01-3.671 3.676H18.61a3.672 3.672 0 01-3.672-3.676V26.31a3.672 3.672 0 013.671-3.675h94.126a3.672 3.672 0 013.671 3.675v69.862h.005z" stroke="#414B54" stroke-width="5" stroke-linecap="round" stroke-linejoin="round"/></svg>