<svg width="146" height="130" fill="none" xmlns="http://www.w3.org/2000/svg"><path d="M82.15 111.179a1.81 1.81 0 001.723-.514l7.78-8.161 11.076 2.146a1.808 1.808 0 002.067-2.333l-5.12-16.056 14.242 9.007c.297.187.635.284.974.284a1.823 1.823 0 001.807-1.699l.72-11.256 9.859-5.47c.557-.315.913-.895.931-1.536a1.811 1.811 0 00-.846-1.584l-13.771-8.711 28.316-18.42c.193-.06.381-.157.544-.284 1.85-1.433 3.567-4.661 1.233-11.946-1.638-5.102-4.909-10.978-9.219-16.558-8.137-10.53-19.864-19.332-25.565-14.925a1.94 1.94 0 00-.399.435l-44.04 40.153s-.03.036-.048.048l-16.358 12.64L4.578 84.013c-.471.2-.876.447-1.22.707-1.845 1.433-3.561 4.66-1.228 11.946 1.638 5.102 4.909 10.984 9.219 16.557 6.662 8.621 15.73 16.087 21.932 16.087 1.372 0 2.606-.363 3.64-1.161a5.63 5.63 0 00.973-.985l37.323-34.797 5.616 17.598a1.798 1.798 0 001.318 1.215zm14.183-37.807l.03 2.503-.568-1.777c.187-.236.362-.478.538-.726z" fill="#B8DDFF"/><path d="M76.087 88.618L35.784 126.19M4.518 85.735l44.59-28.28M12.8 111.645C4.143 100.443.42 88.824 4.482 85.686c4.062-3.137 14.37 3.398 23.02 14.594 8.657 11.202 12.38 22.82 8.318 25.958-4.062 3.137-14.37-3.397-23.02-14.593z" stroke="#414B54" stroke-width="5" stroke-linecap="round" stroke-linejoin="round"/><path d="M34.583 117.353c2.126-1.644-.647-8.795-6.194-15.972-5.548-7.177-11.768-11.664-13.895-10.02-2.127 1.643.646 8.794 6.194 15.972 5.547 7.177 11.768 11.663 13.895 10.02zm75.66-52.505l31.078-20.215M110.055 4.179l-44.36 40.436m75.663.067c4.062-3.138.339-14.763-8.318-25.959-8.657-11.2-18.964-17.729-23.02-14.593M77.206 47.722c-4.879-3.524-9.201-4.872-11.504-3.095L49.107 57.45c3.186-2.46 10.193 1.01 17.247 8.022m5.338 9.363l10.882 34.108 8.463-8.881 12.042 2.334-9.303-29.163m2.369-17.301l30.263 19.133-10.724 5.954-.78 12.242-18.456-11.667" stroke="#414B54" stroke-width="5" stroke-linecap="round" stroke-linejoin="round"/><path d="M81.921 78.59c8.72 0 15.79-7.07 15.79-15.791 0-8.72-7.07-15.79-15.79-15.79-8.72 0-15.79 7.07-15.79 15.79 0 8.72 7.07 15.79 15.79 15.79z" stroke="#414B54" stroke-width="5" stroke-linecap="round" stroke-linejoin="round"/></svg>