<svg width="123" height="139" fill="none" xmlns="http://www.w3.org/2000/svg"><path d="M120.845 64.18a58.686 58.686 0 00-1.816-10.071l1.609-1.61c.276-.275.428-.654.428-1.042 0-.389-.152-.768-.428-1.043l-4.487-4.488a56.208 56.208 0 00-1.456-3.1v-24.51s-.005-.01-.005-.015c0-.01.005-.015.005-.024a1.946 1.946 0 00-.03-.246l-.015-.06a1.978 1.978 0 00-.064-.196c-.01-.03-.024-.054-.039-.084a1.472 1.472 0 00-.079-.152c-.019-.025-.034-.055-.054-.08a1.05 1.05 0 00-.118-.142c-.015-.02-.029-.04-.049-.054a1.64 1.64 0 00-.202-.167.226.226 0 01-.034-.02 1.18 1.18 0 00-.286-.138c-.034-.014-.064-.03-.098-.039L62.094 2.059a1.442 1.442 0 00-.817 0L9.744 16.898a1.485 1.485 0 00-1.067 1.378 1.487 1.487 0 00.993 1.436l13.516 4.694a59.037 59.037 0 00-6.603 6.568c-.364.04-.708.217-.964.522C6.836 42.148 2 55.629 2 69.454c0 12.207 3.66 23.942 10.578 33.939 6.765 9.767 16.158 17.23 27.16 21.585a1.4 1.4 0 00.196.059 58.743 58.743 0 0011.44 3.208c.368 1.544.55 2.897.644 4.078.236 2.987 2.656 5.235 5.628 5.235h8.079c2.972 0 5.392-2.248 5.634-5.235a26.46 26.46 0 01.644-4.088 58.759 58.759 0 0011.336-3.174 1.63 1.63 0 00.295-.083c24.355-9.634 39.459-33.718 37.58-59.922a1.462 1.462 0 00-.369-.876zm-9.102-43.789v17.285a59.57 59.57 0 00-11.587-13.26l11.587-4.025z" fill="#FFF0CD"/><path d="M119.753 64.775c1.894 26.416-13.85 49.423-36.655 58.446m-42.806.001c-21.56-8.527-36.807-29.56-36.807-54.15a57.97 57.97 0 0113.285-37.02m12.694-7.42V50.27l29.732 10.323c1.619.56 3.38.56 4.999 0L93.927 50.27V24.632" stroke="#414B54" stroke-width="5" stroke-linecap="round" stroke-linejoin="round"/><path d="M10.162 17.93l51.533 17.89 51.533-17.89L61.695 3.093 10.162 17.93zm103.066 26.767V17.932m-.005 26.776l-6.373 6.373 6.373 6.374 6.374-6.374-6.374-6.373zm-51.527 90.991h-4.04c-2.19 0-3.985-1.693-4.157-3.877-.487-6.052-2.938-14.588-15.297-27.838 0 0 3.818-14.869-1.23-51.11" stroke="#414B54" stroke-width="5" stroke-linecap="round" stroke-linejoin="round"/><path d="M61.695 135.699h4.04c2.19 0 3.985-1.693 4.157-3.877.487-6.052 2.938-14.588 15.297-27.838 0 0-3.818-14.869 1.23-51.11M61.695 87.532a3.823 3.823 0 100-7.646 3.823 3.823 0 000 7.646zm0-.001V135.7" stroke="#414B54" stroke-width="5" stroke-linecap="round" stroke-linejoin="round"/></svg>