<svg width="183" height="113" fill="none" xmlns="http://www.w3.org/2000/svg"><path d="M83.21 70.422l-38.1-16.05v29.962a5.49 5.49 0 002.308 4.483c6.716 4.77 26.905 17.888 44.618 17.019 17.712.869 37.895-12.249 44.617-17.02a5.498 5.498 0 002.309-4.482V54.597L91.339 70.722a11.44 11.44 0 01-8.122-.294l-.007-.006zm-56 8.058c1.873 0 3.392-3.583 3.392-8.003s-1.518-8.003-3.392-8.003c-1.873 0-3.392 3.583-3.392 8.003s1.519 8.003 3.392 8.003z" fill="#B8DDFF"/><path d="M23.961 75.391a8.699 8.699 0 00-2.178 3.14c-.728 1.781-.797 3.763-.38 5.639.878 3.989 2.577 14.099-1.076 20.108-.48.787.429 1.713 1.226 1.256 4.43-2.557 10.686-8.103 10.686-19.05 0 0 .404-5.415-.977-9.242-1.102-3.051-4.911-4.045-7.307-1.857l.006.006zm154.857-37.477L99.622 4.051a11.463 11.463 0 00-8.265-.287L4.295 33.988c-1.525.531-1.593 2.676-.106 3.301L25.1 46.092v18.97h4.22V47.868l.946.4 6.043 2.557L83.1 70.54a11.44 11.44 0 008.121.294l87.461-29.611c1.531-.52 1.618-2.67.125-3.302l.012-.006z" fill="#B8DDFF"/><path d="M83.21 70.422l-38.1-16.05v29.962a5.49 5.49 0 002.308 4.483c6.716 4.77 26.905 17.888 44.618 17.019 17.712.869 37.895-12.249 44.617-17.02a5.498 5.498 0 002.309-4.482V54.597L91.339 70.722a11.44 11.44 0 01-8.122-.294l-.007-.006zm-56 8.058c1.873 0 3.392-3.583 3.392-8.003s-1.518-8.003-3.392-8.003c-1.873 0-3.392 3.583-3.392 8.003s1.519 8.003 3.392 8.003z" stroke="#414B54" stroke-width="5" stroke-linecap="round" stroke-linejoin="round"/><path d="M23.961 75.391a8.699 8.699 0 00-2.178 3.14c-.728 1.781-.797 3.763-.38 5.639.878 3.989 2.577 14.099-1.076 20.108-.48.787.429 1.713 1.226 1.256 4.43-2.557 10.686-8.103 10.686-19.05 0 0 .404-5.415-.977-9.242-1.102-3.051-4.911-4.045-7.307-1.857l.006.006z" stroke="#414B54" stroke-width="5" stroke-linecap="round" stroke-linejoin="round"/><path d="M178.818 37.914L99.622 4.051a11.463 11.463 0 00-8.265-.287L4.295 33.988c-1.525.531-1.593 2.676-.106 3.301L25.1 46.092v18.97h4.22V47.868l.946.4 6.043 2.557L83.1 70.54a11.44 11.44 0 008.121.294l87.461-29.611c1.531-.52 1.618-2.67.125-3.302l.012-.006z" stroke="#414B54" stroke-width="6" stroke-linecap="round" stroke-linejoin="round"/></svg>