<svg width="94" height="153" fill="none" xmlns="http://www.w3.org/2000/svg"><path d="M46.695 151.836a1.81 1.81 0 001.813-1.813h38.309a1.81 1.81 0 001.71 1.813h.097a1.81 1.81 0 001.808-1.717l1.91-36.156c.478-9.056-2.69-17.658-8.929-24.235-6.226-6.566-14.63-10.18-23.673-10.199h-.06c-.097 0-.194.012-.29.025 0 0-.019.005-.03.005a2.607 2.607 0 00-.279.073c-.03.012-.06.03-.09.042-.067.025-.133.06-.2.097-.03.018-.066.036-.097.055-.066.048-.133.096-.193.15a.427.427 0 00-.06.049 2.075 2.075 0 00-.218.242c-.006.012-.012.012-.012.018-.266.369-.55.72-.84 1.058l-8.88 6.202c-.291-.338-13.047-6.891-13.313-7.26 0-.006-.006-.006-.012-.018a2.076 2.076 0 00-.217-.242.427.427 0 00-.06-.048c-.061-.055-.128-.103-.194-.151-.03-.019-.067-.037-.097-.055a1.506 1.506 0 00-.2-.097c-.03-.012-.06-.03-.09-.042a2.36 2.36 0 00-.278-.073c-.012 0-.024-.005-.03-.005a2.345 2.345 0 00-.29-.025h-.061c-9.044.018-17.447 3.633-23.673 10.199-6.239 6.577-9.406 15.179-8.929 24.235l1.91 36.156a1.815 1.815 0 001.905 1.717 1.81 1.81 0 001.71-1.813h38.31a1.81 1.81 0 001.813 1.813zm30.092-92.384c0 4.256 2.376 7.593 5.411 7.593 3.035 0 5.41-3.337 5.41-7.593 0-3.36-1.48-6.136-3.597-7.163V25.2c0-.145-.018-.278-.048-.411-.006-.03-.018-.06-.03-.097a1.715 1.715 0 00-.121-.308c-.018-.036-.036-.073-.06-.109a1.58 1.58 0 00-.212-.284c-.018-.018-.03-.036-.048-.054a1.787 1.787 0 00-.333-.266c-.012-.006-.018-.018-.03-.024L47.63 2.258a1.828 1.828 0 00-1.874 0L10.26 23.647a1.814 1.814 0 00.06 3.143l15.452 8.524v6.009c-2.533 1.958-3.519 5.894-2.291 9.708.791 2.443 2.375 4.462 4.334 5.586 1.977 8.258 8.96 19.46 17.283 19.46h3.192c8.325 0 15.307-11.202 17.284-19.46 1.958-1.124 3.542-3.143 4.334-5.586 1.233-3.808.242-7.744-2.291-9.702v-6.01l12.767-7.036v24.018c-2.115 1.027-3.597 3.802-3.597 7.163v-.012zM35.88 42.302a66.931 66.931 0 0121.63 0H35.88z" fill="#EBDDFD"/><path d="M4.777 149.551l-1.91-36.157c-.931-17.676 13.148-32.523 30.849-32.523l12.99 36.634 12.992-36.634c17.7 0 31.78 14.847 30.849 32.523l-1.91 36.157M27.598 41.831c-2.436 1.203-3.494 4.697-2.376 8.161.768 2.382 2.388 4.165 4.19 4.903 1.595 7.955 8.27 18.885 15.699 18.885h3.192c7.43 0 14.103-10.93 15.7-18.885 1.807-.738 3.42-2.521 4.189-4.903 1.118-3.464.054-6.958-2.376-8.16M27.598 33.76l-16.395-9.037L46.707 3.335l35.497 21.388-16.388 9.038" stroke="#414B54" stroke-width="5" stroke-linecap="round" stroke-linejoin="round"/><path d="M65.816 25.902a69.028 69.028 0 00-38.218 0V41.83a69.028 69.028 0 0138.218 0V25.859v.043zm16.388-1.179V52.47m3.597 6.505c0 3.192-1.608 5.78-3.597 5.78-1.988 0-3.597-2.588-3.597-5.78 0-3.191 1.609-5.779 3.597-5.779 1.99 0 3.597 2.588 3.597 5.78zM33.715 80.871c6.372 8.899 19.605 8.899 25.977 0M2.867 113.394l43.84 12.296 43.834-12.296m-43.835 36.157v-32.046" stroke="#414B54" stroke-width="5" stroke-linecap="round" stroke-linejoin="round"/></svg>