<svg width="160" height="125" fill="none" xmlns="http://www.w3.org/2000/svg"><path d="M156.532 2.006H61.966c-1.003 0-1.813.81-1.813 1.814v33.93H27.399c-9.581 0-17.38 7.799-17.38 17.38v21.62c0 4.63 3.325 8.5 7.708 9.352v34.114H2.814c-1.004 0-1.814.81-1.814 1.813 0 1.004.81 1.814 1.814 1.814h151.904c1.004 0 1.814-.81 1.814-1.814 0-1.003-.81-1.813-1.814-1.813H50.795V56.588h9.358v25.928c0 1.004.81 1.814 1.813 1.814h94.566a1.81 1.81 0 001.813-1.814V3.814A1.81 1.81 0 00156.532 2v.006z" fill="#B8DDFF"/><path d="M34.243 32.431c8.013 0 14.508-6.495 14.508-14.508 0-8.013-6.495-14.509-14.508-14.509-8.013 0-14.509 6.496-14.509 14.509S26.23 32.43 34.243 32.43z" fill="#B8DDFF"/><path d="M61.978 38.876V3.342h94.566v78.703H61.978V54.303M34.255 30.147c7.01 0 12.694-5.684 12.694-12.695S41.267 4.757 34.255 4.757c-7.012 0-12.695 5.684-12.695 12.695s5.683 12.695 12.695 12.695z" stroke="#414B54" stroke-width="5" stroke-linecap="round" stroke-linejoin="round"/><path d="M19.552 121.556V83.985a7.709 7.709 0 01-7.707-7.708V54.659c0-8.596 6.97-15.566 15.566-15.566h53.32a1.81 1.81 0 011.813 1.813v.708c0 7.012-5.683 12.695-12.695 12.695H48.987v67.253M34.255 84.97v36.586m-31.43.001H154.73M82.023 39.626l21.6-11.172m12.545 20.076h26.025m-26.025 11.667h15.905m-15.905-35.002h26.025m-26.025 11.668h15.905" stroke="#414B54" stroke-width="5" stroke-linecap="round" stroke-linejoin="round"/></svg>