<svg id="Layer_2" data-name="Layer 2" xmlns="http://www.w3.org/2000/svg" viewBox="0 0 44.28 47.75"><defs><style>.cls-1{fill:#1d1d1b}</style></defs><path class="cls-1" d="M17.8 13.55a.43.43 0 01-.15-.33V.81a.48.48 0 01.14-.35.45.45 0 01.36-.14h9.48a.5.5 0 01.37.14.45.45 0 01.15.35v1.9a.43.43 0 01-.15.34.54.54 0 01-.37.13h-6.35v2.43h5.9a.56.56 0 01.38.14.49.49 0 01.15.36v1.74a.45.45 0 01-.15.35.51.51 0 01-.38.14h-5.9v2.49h6.51a.55.55 0 01.37.14.49.49 0 01.15.36v1.89a.43.43 0 01-.15.34.55.55 0 01-.37.14h-9.64a.49.49 0 01-.35-.15zm13.33-.83a4.92 4.92 0 01-1.2-3.32V8.04a4.92 4.92 0 011.21-3.28 4 4 0 013-1.19 4 4 0 012.91 1.1V.6a.43.43 0 01.15-.34.52.52 0 01.4-.14h2.59a.53.53 0 01.37.14.43.43 0 01.15.34v12.62a.43.43 0 01-.15.34.53.53 0 01-.37.14H37.8a.49.49 0 01-.35-.15.43.43 0 01-.15-.33v-.59a3.88 3.88 0 01-3.11 1.26 4 4 0 01-3.06-1.17zm5.51-2a2.29 2.29 0 00.46-1.33V7.95a2 2 0 00-.47-1.23 1.64 1.64 0 00-1.28-.49 1.52 1.52 0 00-1.29.51 2.56 2.56 0 00-.45 1.4v1.19a2.56 2.56 0 00.45 1.41 1.89 1.89 0 002.58 0zM44 12.76a4.42 4.42 0 01-1.1-3.19V4.23a.43.43 0 01.15-.34.51.51 0 01.35-.13h2.67a.52.52 0 01.37.13.43.43 0 01.15.34v5.22c0 1.19.56 1.78 1.67 1.78a1.61 1.61 0 001.25-.47A1.77 1.77 0 0050 9.45V4.23a.43.43 0 01.15-.34.52.52 0 01.37-.13h2.65a.48.48 0 01.36.13.46.46 0 01.14.34v9a.45.45 0 01-.14.33.46.46 0 01-.36.15h-2.48a.53.53 0 01-.37-.14.43.43 0 01-.15-.34v-.73a3.9 3.9 0 01-3.33 1.4A3.81 3.81 0 0144 12.76zm-25 16.8a4.9 4.9 0 01-1.73-3.86v-3.4A4.9 4.9 0 0119 18.47a6.91 6.91 0 014.49-1.35 8.7 8.7 0 013.2.55 5.15 5.15 0 012.24 1.61 4 4 0 01.86 2.48.36.36 0 01-.13.29.43.43 0 01-.31.12h-2.87a.65.65 0 01-.41-.11.87.87 0 01-.23-.39 2.27 2.27 0 00-.84-1.31 2.76 2.76 0 00-1.53-.36c-1.51 0-2.29.8-2.35 2.4v3.22c.06 1.6.84 2.41 2.35 2.41a2.72 2.72 0 001.53-.4 2.17 2.17 0 00.85-1.3.72.72 0 01.22-.39.69.69 0 01.42-.1h2.85a.42.42 0 01.31.11.36.36 0 01.13.29 4 4 0 01-.86 2.48 5.15 5.15 0 01-2.24 1.61 8.7 8.7 0 01-3.2.55A7 7 0 0119 29.56zm13.81.93a3.28 3.28 0 01-1.36-1.08A2.52 2.52 0 0131 27.9a2.49 2.49 0 011.13-2.11 7.23 7.23 0 013.12-1.12l2.49-.36v-.23a1.52 1.52 0 00-.3-1 1.37 1.37 0 00-1-.32 1.48 1.48 0 00-.67.13 4 4 0 00-.62.4 2 2 0 01-.46.31.22.22 0 01-.2.13H32.1a.48.48 0 01-.33-.12.34.34 0 01-.11-.3 2 2 0 01.54-1.15A4 4 0 0133.79 21a6.56 6.56 0 012.63-.46 5.55 5.55 0 013.69 1 3.57 3.57 0 011.21 2.82v5.79a.49.49 0 01-.14.34.53.53 0 01-.37.14h-2.47a.52.52 0 01-.35-.14.46.46 0 01-.15-.34v-.67a3.15 3.15 0 01-1.22 1 4.3 4.3 0 01-1.87.37 4.74 4.74 0 01-1.94-.36zm4.38-2.42a2.16 2.16 0 00.55-1.6v-.23l-1.66.26c-1.13.21-1.69.59-1.69 1.15a.83.83 0 00.39.71 1.69 1.69 0 001 .27 1.94 1.94 0 001.41-.56zm7.46-1.18v-3.54h-1.59a.52.52 0 01-.35-.14.46.46 0 01-.15-.34v-1.64a.45.45 0 01.15-.35.56.56 0 01.35-.13h1.59V17.6a.45.45 0 01.15-.35.49.49 0 01.35-.13h2.47a.52.52 0 01.36.13.48.48 0 01.14.35v3.15h2.51a.57.57 0 01.37.13.45.45 0 01.15.35v1.64a.45.45 0 01-.15.35.52.52 0 01-.37.13h-2.51v3.25a1.67 1.67 0 00.26 1 1 1 0 00.84.35h1.59a.49.49 0 01.36.14.5.5 0 01.14.35v1.76a.48.48 0 01-.5.48H48.9q-4.24.01-4.25-3.79zM17.8 47.54a.44.44 0 01-.15-.33V34.78a.43.43 0 01.15-.34.52.52 0 01.35-.14H21a.49.49 0 01.36.14.42.42 0 01.14.34v12.43a.43.43 0 01-.14.33.45.45 0 01-.36.14h-2.85a.47.47 0 01-.35-.14zm6.38 0a.44.44 0 01-.15-.33v-9a.43.43 0 01.15-.34.52.52 0 01.35-.14h2.33a.49.49 0 01.36.14.42.42 0 01.14.34v.65a4.19 4.19 0 011.25-.94 3.86 3.86 0 011.73-.38 3.08 3.08 0 013 1.65A3.62 3.62 0 0134.71 38a3.84 3.84 0 011.85-.46 3.6 3.6 0 012.68 1.06 4.38 4.38 0 011 3.17v5.43a.47.47 0 01-.14.33.45.45 0 01-.36.14H37.3a.52.52 0 01-.37-.13.43.43 0 01-.15-.34v-5.3a1.81 1.81 0 00-.39-1.29 1.42 1.42 0 00-1.06-.41 1.35 1.35 0 00-1 .41 1.81 1.81 0 00-.39 1.29v5.3a.47.47 0 01-.14.33.48.48 0 01-.36.14H31a.52.52 0 01-.37-.13.43.43 0 01-.15-.34v-5.3a1.77 1.77 0 00-.48-1.28 1.39 1.39 0 00-1-.41 1.37 1.37 0 00-1 .41 1.74 1.74 0 00-.4 1.27v5.32a.47.47 0 01-.14.33.49.49 0 01-.37.14h-2.56a.47.47 0 01-.35-.14zm19.41-.78a4.26 4.26 0 01-1.47-3.19v-1.72a4.19 4.19 0 011.51-3.16 5.91 5.91 0 013.85-1.14 5.9 5.9 0 013.84 1.14 4.2 4.2 0 011.52 3.16v1.72a4.27 4.27 0 01-1.48 3.19 6 6 0 01-3.88 1.12 6 6 0 01-3.89-1.12zM48.7 45a2.59 2.59 0 00.46-1.5 6.93 6.93 0 000-.77 6.82 6.82 0 000-.76 2.58 2.58 0 00-.46-1.49 1.48 1.48 0 00-1.22-.5 1.5 1.5 0 00-1.23.5 2.66 2.66 0 00-.46 1.52v1.53a2.67 2.67 0 00.46 1.5 1.52 1.52 0 001.23.49A1.5 1.5 0 0048.7 45z" transform="translate(-9.36 -.12)"/><path class="cls-1" d="M0 .36h2.68v47.16H0z"/></svg>