<?xml version="1.0" encoding="utf-8"?><svg xmlns="http://www.w3.org/2000/svg" xmlns:xlink="http://www.w3.org/1999/xlink"><symbol viewBox="0 0 27 32" id="add-user" xmlns="http://www.w3.org/2000/svg"><path d="M18.723 21.788c-1.15-.48-3.884-1.423-5.565-1.919-.143-.045-.166-.052-.166-.649 0-.493.203-.989.401-1.409a7.22 7.22 0 0 0 .559-1.912c.255-.296.602-.88.826-1.993.196-.981.104-1.338-.026-1.673-.013-.035-.028-.07-.038-.105-.049-.23.018-1.425.186-2.352.116-.636-.03-1.989-.906-3.108-.553-.707-1.611-1.576-3.544-1.696l-1.06.001c-1.9.12-2.96.988-3.513 1.695-.876 1.119-1.021 2.472-.906 3.108.169.928.236 2.123.187 2.348-.01.039-.025.074-.039.11-.129.335-.221.692-.025 1.673.222 1.113.57 1.697.826 1.993.09.688.344 1.456.559 1.912.157.334.23.788.23 1.431 0 .597-.023.604-.157.646-1.738.513-4.505 1.513-5.537 1.965-.818.351-1.017.98-1.017 1.548v2.623c0 .371.22 1.006 1.017 1.006h17.898c.796 0 1.017-.634 1.017-1.006v-2.623c0-.568-.392-1.262-1.209-1.613zm.153 4.192H1.049v-2.579c0-.318.092-.46.388-.587.994-.435 3.741-1.426 5.434-1.926.889-.282.889-1.07.889-1.646 0-.801-.106-1.397-.331-1.878a6.095 6.095 0 0 1-.468-1.601l-.041-.312-.206-.238c-.113-.13-.396-.538-.59-1.513-.153-.759-.085-.935-.031-1.076.031-.076.058-.152.081-.237l.005-.022.005-.022c.105-.495-.037-1.962-.181-2.755-.067-.365.017-1.401.7-2.273.418-.534 1.229-1.19 2.722-1.293l.992-.001c1.219.083 2.145.518 2.752 1.294.682.872.766 1.909.7 2.275-.148.814-.287 2.257-.18 2.758l.008.039.011.038c.016.054.036.108.056.161l.009.026.001.002c.059.153.127.326-.024 1.087-.196.974-.479 1.384-.592 1.515l-.204.237-.042.31a6.123 6.123 0 0 1-.468 1.603c-.247.525-.5 1.157-.5 1.856 0 .577 0 1.367.918 1.655 1.641.485 4.345 1.416 5.448 1.877.418.179.574.493.574.649l-.006 2.579zm4.202-11.539v-4.185h-1.049v4.185h-4.186v1.049h4.186v4.185h1.049V15.49h4.185v-1.049z"/></symbol><symbol viewBox="0 0 139 134" id="analysis" xmlns="http://www.w3.org/2000/svg"><path d="M107.632 80.313a31.773 31.773 0 0 0 3.533-14.613c0-8.52-3.312-16.524-9.334-22.546a32.228 32.228 0 0 0-6.172-4.83V3.615c0-.889-.722-1.616-1.616-1.616H2.616A1.619 1.619 0 0 0 1 3.616v100.513s0 .017.005.027c0 .097 0 .194.027.291 0 .011 0 .022.011.033.016.08.043.161.07.237.01.032.027.059.038.086.032.059.059.118.097.177.016.022.032.049.048.076.049.07.108.14.173.205v.01l26.978 26.973c.07.076.156.146.242.205.033.022.065.032.097.054.06.032.119.07.183.097.044.016.087.027.13.038.059.016.113.037.172.054.097.016.2.026.302.026 0 0 .01.006.016.006h64.449c.894 0 1.616-.727 1.616-1.616v-35.3l24.905 24.905a9.68 9.68 0 0 0 6.867 2.838 9.691 9.691 0 0 0 6.867-2.838c3.786-3.786 3.786-9.948 0-13.734l-26.666-26.666h.005Z"/><path d="M2.626 103.705V3.196h91.427v35.645m.001 52.868v38.973H29.605m76.815-49.728 26.742 26.742a8.098 8.098 0 0 1-11.451 11.45L94.97 92.405"/><path d="M79.29 95.545c16.718 0 30.27-13.552 30.27-30.27 0-16.717-13.552-30.27-30.27-30.27-16.717 0-30.269 13.553-30.269 30.27 0 16.718 13.553 30.27 30.27 30.27Zm-49.685 35.138v-26.979H2.626l26.979 26.979Z"/><path d="M85.108 86.4V55.897H73.776v30.68m-9.862-5.979v-16.74H57.36M40.453 53.857v36.744M30.063 78.1v12.5m-10.39-20.87V90.6m1.611-56.822 13.077-8.256m4.976-.152 10.94 6.038m4.728-.28 13.153-9.41M16.113 35.27a2.802 2.802 0 0 1 5.601 0c0 1.545-1.254 2.8-2.8 2.8a2.802 2.802 0 0 1-2.8-2.8ZM34.01 24.164a2.802 2.802 0 0 1 5.601 0 2.8 2.8 0 0 1-2.8 2.8 2.802 2.802 0 0 1-2.8-2.8Zm15.922 8.596c0-1.545 1.255-2.8 2.8-2.8a2.802 2.802 0 0 1 2.801 2.8 2.802 2.802 0 0 1-2.8 2.801 2.802 2.802 0 0 1-2.801-2.8ZM67.63 20.087c0-1.546 1.255-2.8 2.8-2.8a2.802 2.802 0 0 1 0 5.6 2.802 2.802 0 0 1-2.8-2.8ZM13.274 90.6h48.862m-9.404 17.586h24.544m-24.544 9.01H67.63"/></symbol><symbol viewBox="0 0 27 32" id="arc" xmlns="http://www.w3.org/2000/svg"><path d="m22.453 7.573 2.987-2.987v2.453h1.067V2.772H22.24v1.067h2.453l-2.987 2.987c-2.72-2.56-6.293-4.107-10.293-4.107C7.04 2.719 2.88 4.639 0 7.892l.8.693.32-.32 9.547 9.6-3.573 3.573H4.427L.694 25.171h3.413v3.413l3.733-3.733v-2.667l3.573-3.573 9.547 9.547-.32.32.693.8a15.105 15.105 0 0 0 5.173-11.413c.053-4-1.493-7.627-4.053-10.293zm-15.68 16.8-1.6 1.6v-1.92H3.306l1.6-1.6h1.92v1.92zM1.867 7.52c2.56-2.4 5.973-3.733 9.547-3.733 3.68 0 7.04 1.44 9.547 3.733l-9.547 9.547L1.867 7.52zm19.84.8c2.347 2.507 3.733 5.867 3.733 9.547 0 3.573-1.333 6.933-3.733 9.547l-9.547-9.547 9.547-9.547z"/></symbol><symbol viewBox="0 0 165 113" id="books" xmlns="http://www.w3.org/2000/svg"><path d="M12.244 41.516v12.991c0 2.267.961 4.45 2.642 5.985l50.06 45.684s0 .006.013.006l.018.018a8.1 8.1 0 0 0 6.25 2.049l24.75-2.52v4.612c0 .732.435 1.384 1.106 1.669a1.796 1.796 0 0 0 1.97-.369l6.421-6.233 6.305 4.836a1.81 1.81 0 0 0 2.914-1.438v-4.982l47.134-4.8a1.812 1.812 0 0 0 1.62-1.988 1.81 1.81 0 0 0-1.982-1.62l-2.503.253a23.87 23.87 0 0 1-.919-1.571v-21.37c.32-.599.671-1.191 1.052-1.765l2.732-.285a1.813 1.813 0 0 0 1.04-3.144l-50.066-45.689a1.803 1.803 0 0 0-1.403-.465l-13.717 1.396L75.43 2.47s-.036-.024-.055-.042c-.036-.03-.078-.06-.12-.091-.055-.036-.11-.079-.17-.109-.042-.024-.09-.042-.133-.066-.06-.024-.12-.055-.187-.073-.048-.018-.103-.03-.157-.042-.06-.012-.121-.03-.176-.036a1.7 1.7 0 0 0-.175-.006.97.97 0 0 0-.187 0c-.018 0-.03-.007-.049 0L7.674 8.763C3.98 8.86 1 11.89 1 15.606v12.629c0 1.916.816 3.766 2.237 5.06l9.007 8.221Z"/><path d="M16.119 58.684a6.292 6.292 0 0 1-2.056-4.642V40.234M97.07 24.19l14.521-1.481 50.067 45.69-91.875 9.358a6.288 6.288 0 0 0-5.653 6.257v15.7c0 3.723 3.223 6.631 6.928 6.256l26.75-2.726m15.083-1.53 48.767-4.969M16.12 58.685l50.06 45.677M4.47 31.487a5.05 5.05 0 0 1-1.644-3.724V15.134a5.039 5.039 0 0 1 5.041-5.041M39.2 38.687 16.44 17.916m-8.573-7.822 66.347-6.759"/><path d="m114.366 39.975-66.86 6.813a5.042 5.042 0 0 0-4.534 5.017v12.592a5.044 5.044 0 0 0 5.556 5.018l65.838-6.704M2.826 27.763V15.135M4.47 31.487l40.146 36.634"/><path d="M112.571 62.886a19.72 19.72 0 0 1 0-22.73M97.802 87.931v21.938l7.545-7.326 7.544 5.791V86.39m3.996-.406-23.08 2.352M74.214 3.335l40.152 36.64"/></symbol><symbol viewBox="0 0 145 143" id="building" xmlns="http://www.w3.org/2000/svg"><path d="M23.694 135.219h104.951v5.386c0 .877.713 1.59 1.59 1.59.877 0 1.59-.713 1.59-1.59v-5.386h12.241V52.816h-1.589c.882 0 1.589-.713 1.589-1.59 0-.876-.707-1.59-1.589-1.59h-38.75V32.27h2.774l1.584 1.245c.29.23.635.344.98.344.471 0 .937-.211 1.251-.604a1.595 1.595 0 0 0-.266-2.237L73.652 2.345c-.58-.46-1.39-.46-1.965 0L35.283 31.017a1.594 1.594 0 0 0-.26 2.237 1.585 1.585 0 0 0 2.23.26l1.584-1.245h2.509v17.367H2.59c-.877 0-1.59.714-1.59 1.59 0 .877.713 1.59 1.59 1.59v12.151a1.583 1.583 0 0 0-1.076 1.5v7.786c0 .695.453 1.281 1.076 1.499v59.467h10.924v5.386c0 .877.713 1.59 1.59 1.59.876 0 1.59-.713 1.59-1.59v-5.386h7Z"/><path d="m36.28 31.797 36.4-28.679 36.398 28.679m-66.137-5.253v96.415m59.207-96.627v96.627M61.107 61.001V46.856h3.664m15.814 14.145V46.856h3.67M61.107 86.362V72.216h3.664m15.814 14.146V72.216h3.67m34.572 1.565v-7.786h3.67m15.815 7.786v-7.786h3.669m-57.726 56.964v-22.742H61.107v22.742m41.041-72.204h40.34M3.116 73.781v-7.786H6.78m15.814 7.786v-7.786h3.67m16.677-15.24H2.601m33.679 72.204h72.797m-85.371 10.198h97.951m8.59-11.16c4.848 0 8.778-7.916 8.778-17.682 0-9.766-3.93-17.682-8.778-17.682-4.847 0-8.777 7.916-8.777 17.682 0 9.766 3.93 17.682 8.777 17.682Zm0 .001v18.136M15.116 121.997c4.847 0 8.777-7.916 8.777-17.682 0-9.766-3.93-17.682-8.777-17.682-4.848 0-8.778 7.916-8.778 17.682 0 9.766 3.93 17.682 8.778 17.682Zm-.001.001v18.136"/><path d="M72.679 33.72a6.1 6.1 0 1 0 0-12.2 6.1 6.1 0 0 0 0 12.2Z"/></symbol><symbol viewBox="0 0 512 512" id="burst" xmlns="http://www.w3.org/2000/svg"><!--!Font Awesome Free 6.7.2 by @fontawesome - https://fontawesome.com License - https://fontawesome.com/license/free Copyright 2025 Fonticons, Inc.--><path d="M37.6 4.2C28-2.3 15.2-1.1 7 7s-9.4 21-2.8 30.5l112 163.3-99.6 32.4C6.7 236.4 0 245.6 0 256s6.7 19.6 16.6 22.8l103.1 33.4-52.9 100.6c-4.9 9.3-3.2 20.7 4.3 28.1s18.8 9.2 28.1 4.3l100.6-52.9 33.4 103.1c3.2 9.9 12.4 16.6 22.8 16.6s19.6-6.7 22.8-16.6l33.4-103.1 100.6 52.9c9.3 4.9 20.7 3.2 28.1-4.3s9.2-18.8 4.3-28.1l-52.9-100.6 103.1-33.4c9.9-3.2 16.6-12.4 16.6-22.8s-6.7-19.6-16.6-22.8l-106.5-34.5 25.7-70.4c3.2-8.8 1-18.6-5.6-25.2s-16.4-8.8-25.2-5.6l-70.4 25.7-34.6-106.6C275.6 6.7 266.4 0 256 0s-19.6 6.7-22.8 16.6l-32.3 99.6L37.6 4.2z"/></symbol><symbol xml:space="preserve" viewBox="0 0 492 492" id="cancel" xmlns="http://www.w3.org/2000/svg"><path d="M300.188 246 484.14 62.04c5.06-5.064 7.852-11.82 7.86-19.024 0-7.208-2.792-13.972-7.86-19.028L468.02 7.872C462.952 2.796 456.196.016 448.984.016c-7.2 0-13.956 2.78-19.024 7.856L246.008 191.82 62.048 7.872C56.988 2.796 50.228.016 43.02.016c-7.2 0-13.96 2.78-19.02 7.856L7.872 23.988c-10.496 10.496-10.496 27.568 0 38.052L191.828 246 7.872 429.952C2.808 435.024.02 441.78.02 448.984c0 7.204 2.788 13.96 7.852 19.028l16.124 16.116c5.06 5.072 11.824 7.856 19.02 7.856 7.208 0 13.968-2.784 19.028-7.856l183.96-183.952 183.952 183.952c5.068 5.072 11.824 7.856 19.024 7.856h.008c7.204 0 13.96-2.784 19.028-7.856l16.12-16.116c5.06-5.064 7.852-11.824 7.852-19.028 0-7.204-2.792-13.96-7.852-19.028L300.188 246z"/></symbol><symbol viewBox="0 0 480 416" id="check" xmlns="http://www.w3.org/2000/svg"><path d="M480 128c0 8.188-3.125 16.38-9.375 22.62l-256 256C208.4 412.9 200.2 416 192 416s-16.38-3.125-22.62-9.375l-128-128C35.13 272.4 32 264.2 32 256c0-18.28 14.95-32 32-32 8.188 0 16.38 3.125 22.62 9.375L192 338.8l233.4-233.4c6.2-6.27 14.4-9.4 22.6-9.4 17.1 0 32 13.7 32 32z"/></symbol><symbol viewBox="0 0 32 32" id="config" xmlns="http://www.w3.org/2000/svg"><path d="M17.599 3.738v2.598l.8.207a9.555 9.555 0 0 1 2.566 1.081l.715.434 1.86-1.86 2.262 2.262-1.888 1.888.407.708a9.532 9.532 0 0 1 1.002 2.527l.196.817h2.744v3.199h-2.806l-.216.782a9.504 9.504 0 0 1-1.04 2.406l-.434.716 2.036 2.035-2.262 2.262-2.064-2.064-.707.407a9.524 9.524 0 0 1-2.368.961l-.8.206v2.951h-3.199V25.31l-.8-.206a9.524 9.524 0 0 1-2.368-.961l-.708-.407L8.463 25.8l-2.262-2.262 2.036-2.035-.434-.716a9.52 9.52 0 0 1-1.04-2.406l-.216-.782H3.741V14.4h2.744l.196-.817a9.511 9.511 0 0 1 1.002-2.527l.407-.708L6.202 8.46l2.262-2.262 1.86 1.86.715-.434a9.523 9.523 0 0 1 2.566-1.081l.8-.207V3.738h3.199zM16 20.799c2.646 0 4.798-2.153 4.798-4.799S18.646 11.201 16 11.201 11.202 13.354 11.202 16A4.804 4.804 0 0 0 16 20.799zm2.666-18.127h-5.331v2.839c-1.018.263-1.975.67-2.852 1.202L8.461 4.691l-3.769 3.77 2.065 2.065a10.57 10.57 0 0 0-1.114 2.809h-2.97v5.331h3.06c.263.953.655 1.85 1.156 2.676L4.691 23.54l3.769 3.77 2.241-2.241c.816.469 1.7.828 2.633 1.069v3.191h5.331v-3.191c.933-.241 1.817-.6 2.633-1.069l2.241 2.241 3.769-3.77-2.198-2.198c.501-.826.893-1.723 1.156-2.676h3.06v-5.331h-2.97a10.584 10.584 0 0 0-1.114-2.809l2.065-2.065-3.769-3.77-2.022 2.022a10.606 10.606 0 0 0-2.852-1.202V2.672zM16 19.733c-2.062 0-3.732-1.671-3.732-3.733s1.67-3.732 3.732-3.732 3.732 1.671 3.732 3.732A3.732 3.732 0 0 1 16 19.733z"/></symbol><symbol viewBox="0 0 131 146" id="desk" xmlns="http://www.w3.org/2000/svg"><path d="M127.703 106.571h-2.113v-90.86c0-2.03-1.642-3.68-3.671-3.68H75.545V2.295c0-.716-.58-1.295-1.289-1.295H57.088c-.71 0-1.288.58-1.288 1.295v9.736H9.425a3.677 3.677 0 0 0-3.671 3.68v90.86H3.64a.642.642 0 0 0-.641.647v7.038c0 .355.287.647.641.647h25.034l-6.29 23.498a1.942 1.942 0 0 0 1.872 2.443h8.82c.876 0 1.648-.59 1.872-1.44l6.56-24.501h51.084l6.556 24.501c.23.85.996 1.44 1.872 1.44h8.819a1.938 1.938 0 0 0 1.873-2.443l-6.285-23.498h22.275a.65.65 0 0 0 .646-.647v-7.038a.647.647 0 0 0-.646-.647Z"/><path d="M127.703 108.894H3.647a.647.647 0 0 0-.647.647v7.037c0 .355.287.648.647.648h25.028l-6.29 23.498a1.942 1.942 0 0 0 1.872 2.443h8.82c.876 0 1.648-.59 1.872-1.441l6.555-24.506h51.084l6.556 24.506c.23.851.996 1.441 1.872 1.441h8.819a1.937 1.937 0 0 0 1.872-2.443l-6.289-23.498h22.274a.647.647 0 0 0 .647-.648v-7.037a.647.647 0 0 0-.647-.647h.011ZM41.343 69.896c-.058 0-.11 0-.167-.01a70.083 70.083 0 0 0-12.46-.804l-2.164.052 4.85-6.84c1.487-2.093 3.02-4.254 4.225-6.53.401-.757.782-1.572.87-2.376.131-1.185-.37-2.48-.813-3.623-.161-.428-.35-.908-.62-1.159-.365-.344-1.064-.443-2.123-.302-1.977.255-4.407 1.237-4.762 3.163a1.084 1.084 0 1 1-2.133-.391c.564-3.065 3.787-4.553 6.613-4.918.642-.084 2.592-.34 3.88.872.631.59.929 1.352 1.163 1.963.506 1.305 1.132 2.928.944 4.636-.125 1.169-.605 2.203-1.11 3.153-1.268 2.401-2.848 4.625-4.37 6.776l-2.369 3.336c3.578.016 7.171.303 10.702.851a1.084 1.084 0 0 1-.167 2.156l.01-.005Zm13.445-9.616a41.32 41.32 0 0 1-9.325-1.07 1.082 1.082 0 0 1 .49-2.11 38.878 38.878 0 0 0 12.037.883 1.09 1.09 0 0 1 1.168.992 1.086 1.086 0 0 1-.99 1.17c-1.127.093-2.254.14-3.38.14v-.005Z"/><path d="M51.45 65.135c-.042 0-.083 0-.125-.006a1.078 1.078 0 0 1-.95-1.2c.376-3.253.658-6.563.84-9.83a1.076 1.076 0 0 1 1.143-1.024c.6.031 1.053.543 1.022 1.143-.183 3.31-.47 6.662-.85 9.956-.063.553-.532.96-1.075.96h-.005Zm23.96-5.915h-.016a566.969 566.969 0 0 0-11.15-.047h-1.435L66.554 45.7a1.08 1.08 0 0 1 1.335-.752c.579.162.912.757.75 1.336l-2.977 10.718c3.249-.01 6.524.01 9.758.053a1.085 1.085 0 0 1-.016 2.172l.005-.006Z"/><path d="M68.994 70.92c-.036 0-.073 0-.115-.006a1.084 1.084 0 0 1-.964-1.19l1.663-16.064a1.083 1.083 0 1 1 2.154.225L70.07 69.949a1.08 1.08 0 0 1-1.075.97Zm19.104-15.73h-.063l-7.113-.407a1.084 1.084 0 0 1 .12-2.166l7.113.406c.6.037 1.054.549 1.022 1.144a1.082 1.082 0 0 1-1.08 1.023Zm-.308 6.155h-8.047a1.085 1.085 0 1 1 0-2.172h8.047c.6 0 1.085.485 1.085 1.086 0 .6-.485 1.086-1.085 1.086Zm12.689 8.175c-1.8 0-3.599-.365-5.252-1.07-1.612-.69-2.65-1.582-3.17-2.74-.402-.894-.439-1.812-.444-2.752 0-.976.01-1.979.088-2.986a1.093 1.093 0 0 1 .115-1.16c.13-1.023.34-2.046.673-3.043a13.58 13.58 0 0 1 3.4-5.43c2.342-2.276 6.4-3.94 9.779-2.218a1.083 1.083 0 0 1-.98 1.932c-2.431-1.238-5.482.083-7.286 1.837a11.437 11.437 0 0 0-3.218 5.9c3.86-.872 8.313.85 10.337 4.296.818 1.4 1.1 3.138.73 4.537-.271 1.018-.866 1.811-1.716 2.297-.767.438-1.622.538-2.279.58-.256.015-.511.02-.767.02h-.01Zm-6.624-9.386c-.073.944-.083 1.89-.083 2.813 0 .726.026 1.368.25 1.87.282.626.976 1.18 2.05 1.639a11.28 11.28 0 0 0 5.043.877c.423-.026.96-.079 1.335-.298.35-.198.574-.517.699-.97.224-.836.021-1.99-.501-2.877-1.705-2.908-5.658-4.219-8.793-3.05v-.004Z"/><path d="M121.919 14.36H75.545V4.617c0-.716-.58-1.29-1.289-1.29H57.093c-.715 0-1.288.58-1.288 1.29v9.741H9.43a3.672 3.672 0 0 0-3.671 3.676v86.411a3.672 3.672 0 0 0 3.671 3.675h75.116v-4.876c0-.814.657-1.477 1.476-1.477h24.293c.813 0 1.476.658 1.476 1.477v4.876h10.138a3.672 3.672 0 0 0 3.672-3.675v-86.41a3.672 3.672 0 0 0-3.672-3.676h-.01Zm-5.508 81.811a3.672 3.672 0 0 1-3.671 3.676H18.61a3.672 3.672 0 0 1-3.672-3.676V26.31a3.672 3.672 0 0 1 3.671-3.675h94.126a3.672 3.672 0 0 1 3.671 3.675v69.862h.005Z"/></symbol><symbol viewBox="0 0 146 130" id="diploma" xmlns="http://www.w3.org/2000/svg"><path d="M82.15 111.179a1.81 1.81 0 0 0 1.723-.514l7.78-8.161 11.076 2.146a1.808 1.808 0 0 0 2.067-2.333l-5.12-16.056 14.242 9.007c.297.187.635.284.974.284a1.823 1.823 0 0 0 1.807-1.699l.72-11.256 9.859-5.47c.557-.315.913-.895.931-1.536a1.811 1.811 0 0 0-.846-1.584l-13.771-8.711 28.316-18.42c.193-.06.381-.157.544-.284 1.85-1.433 3.567-4.661 1.233-11.946-1.638-5.102-4.909-10.978-9.219-16.558-8.137-10.53-19.864-19.332-25.565-14.925a1.94 1.94 0 0 0-.399.435l-44.04 40.153s-.03.036-.048.048l-16.358 12.64L4.578 84.013c-.471.2-.876.447-1.22.707-1.845 1.433-3.561 4.66-1.228 11.946 1.638 5.102 4.909 10.984 9.219 16.557 6.662 8.621 15.73 16.087 21.932 16.087 1.372 0 2.606-.363 3.64-1.161a5.63 5.63 0 0 0 .973-.985l37.323-34.797 5.616 17.598a1.798 1.798 0 0 0 1.318 1.215Zm14.183-37.807.03 2.503-.568-1.777c.187-.236.362-.478.538-.726Z"/><path d="M76.087 88.618 35.784 126.19M4.518 85.735l44.59-28.28M12.8 111.645C4.143 100.443.42 88.824 4.482 85.686c4.062-3.137 14.37 3.398 23.02 14.594 8.657 11.202 12.38 22.82 8.318 25.958-4.062 3.137-14.37-3.397-23.02-14.593Z"/><path d="M34.583 117.353c2.126-1.644-.647-8.795-6.194-15.972-5.548-7.177-11.768-11.664-13.895-10.02-2.127 1.643.646 8.794 6.194 15.972 5.547 7.177 11.768 11.663 13.895 10.02Zm75.66-52.505 31.078-20.215M110.055 4.179l-44.36 40.436m75.663.067c4.062-3.138.339-14.763-8.318-25.959-8.657-11.2-18.964-17.729-23.02-14.593M77.206 47.722c-4.879-3.524-9.201-4.872-11.504-3.095L49.107 57.45c3.186-2.46 10.193 1.01 17.247 8.022m5.338 9.363 10.882 34.108 8.463-8.881 12.042 2.334-9.303-29.163m2.369-17.301 30.263 19.133-10.724 5.954-.78 12.242-18.456-11.667"/><path d="M81.921 78.59c8.72 0 15.79-7.07 15.79-15.791 0-8.72-7.07-15.79-15.79-15.79-8.72 0-15.79 7.07-15.79 15.79 0 8.72 7.07 15.79 15.79 15.79Z"/></symbol><symbol xml:space="preserve" viewBox="0 0 213 160" id="down-arrow" xmlns="http://www.w3.org/2000/svg"><path d="M0 53.333 106.667 160 213.333 53.333z"/></symbol><symbol viewBox="0 0 104 479" id="exclamation" xmlns="http://www.w3.org/2000/svg"><path d="M64 352c17.69 0 32-14.32 32-31.1V64.01C96 46.34 81.69 32 64 32S32 46.34 32 64.01v255.1C32 337.7 46.31 352 64 352zm0 48c-22.09 0-40 17.91-40 40s17.91 39.1 40 39.1 40-17.9 40-39.1-17.91-40-40-40z"/></symbol><symbol xml:space="preserve" viewBox="0 0 512 512" id="facebook" xmlns="http://www.w3.org/2000/svg"><path d="M288 192v-38.1c0-17.2 3.8-25.9 30.5-25.9H352V64h-55.9c-68.5 0-91.1 31.4-91.1 85.3V192h-45v64h45v192h83V256h56.4l7.6-64h-64z"/></symbol><symbol viewBox="0 0 32 32" id="graph1" xmlns="http://www.w3.org/2000/svg"><path d="M27.995 1.073a2.668 2.668 0 0 0-2.666 2.665c0 .926.476 1.742 1.195 2.22l-5.04 13.284a2.605 2.605 0 0 0-.425-.043c-.639 0-1.218.235-1.677.611l-5.043-4.166a2.63 2.63 0 0 0 .322-1.244c0-1.47-1.196-2.666-2.666-2.666S9.329 12.93 9.329 14.4c0 .794.356 1.501.909 1.989l-5.374 9.36a2.63 2.63 0 0 0-.859-.155 2.668 2.668 0 0 0-2.666 2.665c0 1.471 1.196 2.667 2.666 2.667S6.67 29.73 6.67 28.259c0-.784-.346-1.482-.887-1.97l5.38-9.37c.263.087.539.146.831.146.633 0 1.206-.231 1.664-.6l5.049 4.17c-.194.37-.314.783-.314 1.228 0 1.47 1.196 2.666 2.666 2.666s2.666-1.196 2.666-2.666c0-.946-.499-1.773-1.243-2.247l5.032-13.263c.157.029.317.048.482.048 1.47 0 2.666-1.196 2.666-2.667s-1.196-2.665-2.666-2.665zM4.005 29.861c-.882 0-1.6-.718-1.6-1.601a1.6 1.6 0 1 1 1.6 1.601zM11.995 16c-.882 0-1.599-.717-1.599-1.599s.717-1.599 1.599-1.599 1.599.717 1.599 1.599S12.877 16 11.995 16zm9.064 7.464c-.882 0-1.599-.717-1.599-1.599s.717-1.599 1.599-1.599 1.599.717 1.599 1.599a1.6 1.6 0 0 1-1.599 1.599zm6.936-18.126a1.6 1.6 0 1 1 1.599-1.6 1.6 1.6 0 0 1-1.599 1.6z"/></symbol><symbol viewBox="0 0 27 32" id="headphones" xmlns="http://www.w3.org/2000/svg"><path d="M26.667 14.4c0-7.36-5.973-13.333-13.333-13.333S.001 7.04.001 14.4v5.44h.053v.427c0 3.52 2.827 6.4 6.347 6.4v-12.8h-.053c-2.24 0-4.16 1.12-5.28 2.88V14.4c0-6.773 5.493-12.267 12.267-12.267S25.602 7.626 25.602 14.4v2.347c-1.12-1.707-3.093-2.88-5.28-2.88h-.053v12.8h.053c.533 0 1.013-.053 1.547-.213-1.6 1.547-3.573 2.613-5.813 3.147v-1.867h-5.387v3.2h5.333v-.213a13.24 13.24 0 0 0 8.267-5.44c1.44-1.173 2.4-2.987 2.4-5.013v-5.867zm-21.334.64v10.453c-2.4-.48-4.267-2.667-4.267-5.227s1.867-4.747 4.267-5.227zm9.6 14.827h-3.2V28.8h3.2v1.067zm6.4-4.374V15.04c2.453.48 4.267 2.667 4.267 5.227s-1.813 4.747-4.267 5.227z"/></symbol><symbol viewBox="0 0 32 32" id="home" xmlns="http://www.w3.org/2000/svg"><path d="m16 2.672-5.331 5.331V5.87H6.404v6.398l-3.755 3.755.754.754L16 4.18l12.597 12.597.754-.754L16 2.672zM7.47 6.937h2.132v2.132l-2.133 2.133V6.937z"/><path d="M6.404 16.533v12.795h7.464v-7.464h4.265v7.464h7.464V16.533l-9.596-9.596-9.596 9.596zM24.53 28.262h-5.331v-7.464h-6.398v7.464H7.47V16.975L16 8.445l8.53 8.53v11.287z"/></symbol><symbol viewBox="0 0 35 35" id="instagram" xmlns="http://www.w3.org/2000/svg"><path d="M25.37 34.75H9.63a9.39 9.39 0 0 1-9.38-9.38V9.63A9.39 9.39 0 0 1 9.63.25h15.74a9.39 9.39 0 0 1 9.38 9.38v15.74a9.39 9.39 0 0 1-9.38 9.38Zm-15.74-32a6.89 6.89 0 0 0-6.88 6.88v15.74a6.89 6.89 0 0 0 6.88 6.88h15.74a6.89 6.89 0 0 0 6.88-6.88V9.63a6.89 6.89 0 0 0-6.88-6.88Z"/><path d="M17.5 26.53a9 9 0 1 1 9-9 9 9 0 0 1-9 9Zm0-15.53a6.53 6.53 0 1 0 6.5 6.5 6.54 6.54 0 0 0-6.5-6.5Zm9.02-1.16a1.5 1.5 0 0 0 0-3 1.5 1.5 0 0 0 0 3Z"/></symbol><symbol xml:space="preserve" viewBox="0 0 32 32" id="lamp" xmlns="http://www.w3.org/2000/svg"><path d="M423.33 43.76c139.61 0 252.8 113.18 252.8 252.79 0 79.84-37.58 154.6-101.43 202.42v206.22c0 11.42-9.26 20.68-20.68 20.68h-31.98v56.35c0 11.42-9.27 20.68-20.69 20.68H345.31c-11.42 0-20.68-9.26-20.68-20.68v-56.35h-31.98c-11.43 0-20.69-9.26-20.69-20.68V498.97c-63.85-47.83-101.43-122.57-101.43-202.42 0-139.61 113.19-252.79 252.8-252.79zm57.34 682.11H365.99v35.67h114.68v-35.67zM142.7 129.79c19.34 19.02-9.58 48.44-28.92 29.41l-59.9-58.72C34.54 81.46 63.46 52.04 82.8 71.07l59.9 58.72zm590.18 29.41c-19.34 19.03-48.26-10.39-28.92-29.41l59.9-58.72c19.34-19.03 48.26 10.39 28.92 29.41l-59.9 58.72zm13.27 182.41c-27.21 0-27.21-41.37 0-41.37h70.21c27.21 0 27.21 41.37 0 41.37h-70.21zm-715.85 0c-27.21 0-27.21-41.37 0-41.37h70.21c27.21 0 27.21 41.37 0 41.37H30.3zm413.71 16.93v56.01c0 11.42-9.26 20.69-20.68 20.69s-20.68-9.27-20.68-20.69v-55.99c-24.78-8.74-41.45-32.21-41.45-58.6 0-34.2 27.94-62.14 62.13-62.14 34.31 0 62.13 27.82 62.13 62.14 0 26.39-16.83 49.85-41.45 58.58zm-20.68-79.35c-11.58 0-20.76 9.19-20.76 20.77 0 11.46 9.29 20.76 20.76 20.76 11.56 0 20.76-9.2 20.76-20.76 0-11.47-9.29-20.77-20.76-20.77zm-110 258.18 220-33.91.04-15.06c.01-6.59 3.16-13.06 9.01-17.05 57.97-39.57 92.38-104.6 92.38-174.8 0-116.77-94.66-211.43-211.43-211.43-116.77 0-211.43 94.66-211.43 211.43 0 69.75 33.96 134.41 91.33 174.07 6.05 3.61 10.1 10.22 10.1 17.78v48.97zm220 7.94-220 33.92v31.18l220-33.91v-31.19zm0 73.04-220 33.92v32.24h220v-66.16z"/></symbol><symbol xml:space="preserve" viewBox="0 0 512 512" id="linkedin" xmlns="http://www.w3.org/2000/svg"><path d="M51.326 185.85h90.011v270.872H51.326V185.85zM96.934 55.278C66.127 55.278 46 75.503 46 102.049c0 26 19.538 46.813 49.756 46.813h.574c31.396 0 50.948-20.814 50.948-46.813-.589-26.546-19.551-46.771-50.344-46.771zm265.405 124.209c-47.779 0-69.184 26.28-81.125 44.71V185.85h-90.038c1.192 25.411 0 270.872 0 270.872h90.038V305.448c0-8.102.589-16.174 2.958-21.978 6.519-16.174 21.333-32.923 46.182-32.923 32.602 0 45.622 24.851 45.622 61.248v144.926H466V301.398c0-83.199-44.402-121.911-103.661-121.911z"/></symbol><symbol viewBox="0 0 32 32" id="mail" xmlns="http://www.w3.org/2000/svg"><path d="M28.244 7.47H2.672v17.06h26.656V7.47h-1.084zm-1.067 1.066L16.879 18.834c-.47.47-1.289.47-1.759 0L4.82 8.536h22.356zm-23.439.425 6.923 6.922-6.923 6.923V8.96zm.851 14.503 6.827-6.826 2.951 2.95c.436.436 1.016.677 1.633.677s1.197-.241 1.633-.677l2.951-2.951 6.826 6.826H4.588zm23.673-.657-6.923-6.924 6.923-6.924v13.848z"/></symbol><symbol xml:space="preserve" viewBox="0 0 444 456" id="message" xmlns="http://www.w3.org/2000/svg"><path d="M437.41 56.035H74.59a7 7 0 0 0-7 7V322.15a7 7 0 0 0 7 7h144.46v119.816a7.001 7.001 0 0 0 11.325 5.504l159.499-125.32h47.537a7 7 0 0 0 7-7V63.035a7 7 0 0 0-7-7zm-7 259.114h-42.957a6.998 6.998 0 0 0-4.326 1.497L233.05 434.562V322.15a7 7 0 0 0-7-7H81.59V70.035h348.82V315.15z"/><path d="M180.037 150.913h151.927a7 7 0 1 0 0-14H180.037a7 7 0 1 0 0 14zm0 79.628h151.927a7 7 0 1 0 0-14H180.037a7 7 0 1 0 0 14z"/></symbol><symbol viewBox="0 0 24 15" id="money" xmlns="http://www.w3.org/2000/svg"><g data-name="Camada 2"><g data-name="Camada 1"><path d="M23.5 4H22V2.5a.5.5 0 0 0-.5-.5H20V.5a.5.5 0 0 0-.5-.5H.5a.5.5 0 0 0-.5.5v9.91a.5.5 0 0 0 .5.5H2v1.5a.5.5 0 0 0 .5.5H4v1.5a.5.5 0 0 0 .5.5h19a.5.5 0 0 0 .5-.5V4.5a.5.5 0 0 0-.5-.5Zm-7.7 5.91H4.2A3.74 3.74 0 0 0 1 6.71V4.2A3.74 3.74 0 0 0 4.2 1h11.6A3.74 3.74 0 0 0 19 4.2v2.51a3.74 3.74 0 0 0-3.2 3.2Zm3.2-2.2v2.2h-2.21A2.76 2.76 0 0 1 19 7.71ZM19 1v2.21A2.76 2.76 0 0 1 16.79 1ZM1 1h2.21A2.76 2.76 0 0 1 1 3.21Zm0 6.71a2.76 2.76 0 0 1 2.21 2.2H1Zm2 3.21h16.5a.5.5 0 0 0 .5-.5V3h1v8.91H3Zm20 3H5v-1h16.5a.5.5 0 0 0 .5-.5V5h1Z"/><path d="M10 2.06a3.39 3.39 0 1 0 3.39 3.39A3.4 3.4 0 0 0 10 2.06Zm0 5.78a2.39 2.39 0 1 1 2.39-2.39A2.39 2.39 0 0 1 10 7.85Z"/></g></g></symbol><symbol viewBox="0 0 25 32" id="note2" xmlns="http://www.w3.org/2000/svg"><path d="M6.294 14.164h12.588v1.049H6.294v-1.049zm0 4.196h12.588v1.049H6.294V18.36zm0 4.197h8.392v1.049H6.294v-1.049z"/><path d="M15.688 3.674c-.25-1.488-1.541-2.623-3.1-2.623s-2.85 1.135-3.1 2.623H-.001v27.275h25.176V3.674h-9.488zM10.49 6.082V4.198c0-1.157.941-2.098 2.098-2.098s2.098.941 2.098 2.098v1.884l.531.302a5.328 5.328 0 0 1 2.273 2.535H7.687A5.328 5.328 0 0 1 9.96 6.384l.53-.302zM24.128 29.9H1.05V4.723h8.392v.749a6.395 6.395 0 0 0-3.147 4.496h12.588a6.394 6.394 0 0 0-3.147-4.496v-.749h8.392V29.9z"/></symbol><symbol viewBox="0 0 32 32" id="pen" xmlns="http://www.w3.org/2000/svg"><path d="M30.771 5.802 26.52 1.551l-1.04 1.041-1.456-1.455a.534.534 0 0 0-.754 0l-8.638 8.639a.534.534 0 0 0 .754.754l8.261-8.262 1.079 1.078L6.407 21.664l1.235 1.235a3.73 3.73 0 0 0-4.512.945c-.034.04-.067.082-.098.123a2.185 2.185 0 0 0-.107.146c-.026.036-.052.072-.076.108-1.55 2.331-1.62 6.789-1.62 6.789s.162.008.444.008c1.281 0 5.01-.175 6.961-2.126a3.738 3.738 0 0 0 .706-4.297l1.319 1.319L30.772 5.801zM7.879 28.139c-1.19 1.19-3.278 1.6-4.767 1.741l2.427-2.427-.754-.754-2.325 2.325c.189-1.422.566-3.146 1.28-4.217l.03-.043.026-.037c.023-.033.047-.068.088-.12.018-.023.035-.047.067-.084a2.655 2.655 0 0 1 2.038-.946c.714 0 1.385.278 1.89.783a2.677 2.677 0 0 1 0 3.779zM29.264 5.802l-6.324 6.324-2.744-2.743 6.324-6.324 2.744 2.743zm-9.822 4.334 2.744 2.743-11.528 11.528-2.744-2.743 11.528-11.528z"/></symbol><symbol viewBox="0 0 511 512" id="pencil" xmlns="http://www.w3.org/2000/svg"><path d="M362.7 19.32c25-24.998 65.6-24.998 90.6 0l39.4 39.43c25 24.99 25 65.55 0 90.55l-48.4 48.4-130-129.98 48.4-48.4zm59 200.98L188.5 453.4c-10.4 10.4-23.3 18.1-37.4 22.2L30.77 511c-8.42 2.5-17.53.2-23.74-6.9-6.21-5.3-8.532-14.4-6.054-22.9L36.37 360.9c4.16-14.1 11.79-27 22.2-37.4L291.7 90.34l130 129.96z"/></symbol><symbol viewBox="0 0 32 32" id="phone" xmlns="http://www.w3.org/2000/svg"><path d="M23.086 1.606H8.913c-.797 0-1.444.647-1.444 1.444v25.901c0 .798.647 1.444 1.444 1.444h14.173c.797 0 1.444-.646 1.444-1.444V3.05c0-.797-.647-1.444-1.444-1.444zm.378 27.345a.377.377 0 0 1-.377.377H8.914a.377.377 0 0 1-.377-.377v-4.95h14.928v4.95zm0-6.017H8.536V5.892h14.928v17.042zm0-18.108H8.536V3.05c0-.208.169-.378.377-.378h14.173c.208 0 .377.17.377.378v1.776z"/><path d="M14.401 26.129H17.6v1.066h-3.199v-1.066z"/></symbol><symbol id="pushpin" xml:space="preserve" viewBox="0 0 98 98" xmlns="http://www.w3.org/2000/svg"><style>.bbst0{fill:none}</style><path class="bbst0" d="M29.6 70.6c-4.3-4.3-9.9-7.1-15.9-8.1-.7-.1-1.4-.2-2.1-.2-1.1 0-2.1.2-3.1.6-.8.3-1.4.8-2 1.5-1.1 1.5-1.6 3.4-1.5 5.2 0 2.7.7 5.4 1.8 7.8 2 4.2 4.9 7.9 8.4 10.9 1.6 1.5 3.3 2.8 5.2 4 1.8 1.1 3.7 1.8 5.8 2.1.6.1 1.2.1 1.7.1 2.9 0 5.7-1 8-2.8.6-.4 1.1-1 1.5-1.5.4-.5.6-1.1.7-1.7 0-.2.1-.4.1-.7 0-.5-.1-1.1-.2-1.6-1.1-5.9-4-11.4-8.4-15.6z"/><path class="bbst0" d="M59 72.2c.2-.3.4-.6.5-1v-.4c0-.6-.2-1.2-.4-1.8C55 57.8 47 48.4 36.4 42.6c-2.1-1.3-4.5-2-6.9-2.2-.9 0-1.8.2-2.7.6-1.6.9-3 2.2-4.1 3.7L10.4 59.5c.4 0 .8-.1 1.3-.1.8 0 1.7.1 2.5.2 6.6 1.1 12.7 4.2 17.5 8.9 4.8 4.7 8.1 10.7 9.3 17.3.1.7.2 1.4.2 2.1C47 83.3 52.6 78.5 58 73.4c.3-.4.7-.7 1-1.2z"/><path class="bbst0" d="M50.7 25.5c-5-3.5-10.4-6.4-16.1-7.1-.8-.1-1.7-.2-2.5-.2-2.5 0-4.9.5-7.2 1.4-2.2.9-4.1 2.4-5.5 4.2-1.6 2.3-2.7 5-3.1 7.8-.2 1.4-.4 2.8-.4 4.1-.1 3.3.8 6.5 2.5 9.3l1.9-2.3c1.4-1.8 3.1-3.4 5.1-4.5 1.2-.6 2.6-.8 3.9-.8 2.9.2 5.8 1 8.3 2.5 11.4 6.2 20 16.2 24.3 28.2.4.9.6 1.9.6 2.8 0 .3 0 .6-.1 1-.2.8-.5 1.6-1.1 2.2-.4.5-.9 1-1.4 1.5-1.5 1.4-3 2.8-4.6 4.2 3.3 2.3 7.1 3.5 11.1 3.6h1.2c2.2-.2 4.4-.9 6.3-2 1.9-1.1 3.4-2.7 4.4-4.6 1-2 1.5-4.3 1.4-6.5 0-2.2-.3-4.4-.9-6.6-2-7.8-5.5-15.1-10.5-21.4-4.8-6.6-10.8-12.2-17.6-16.8zM95 5.5c-4.5 3.3-9 6.8-13.5 10.5-6.5 5.2-12.8 10.4-18.7 15.5 2.5 2.4 4.8 4.9 7 7.6L95 5.5z"/><path d="M97.4 7.3c.4-.5.6-1.1.6-1.8 0-.8-.3-1.5-.9-2.1-.6-.6-1.3-.9-2.1-.9-.6 0-1.3.2-1.8.6-4.5 3.4-9 6.9-13.6 10.6-6.7 5.3-13 10.6-19 15.9-2.6-2.3-5.4-4.5-8.2-6.5-5.1-3.6-10.9-6.8-17.4-7.6-1-.1-1.9-.2-2.9-.2-2.9 0-5.7.5-8.3 1.6-2.7 1.1-5 2.9-6.7 5.2-1.9 2.7-3.1 5.8-3.6 9.1-.3 1.5-.4 3.1-.4 4.6-.1 4.2 1.2 8.2 3.5 11.6C12.3 52.6 7.9 57.8 3.5 63c-.3.3-.4.7-.3 1.1-.8 1.7-1.2 3.6-1.2 5.5.1 3.1.8 6.2 2.1 9 2.2 4.5 5.3 8.6 9.1 11.9 1.7 1.6 3.7 3.1 5.7 4.3 2.1 1.3 4.4 2.1 6.9 2.5.7.1 1.4.2 2.1.2 3.5 0 6.9-1.2 9.7-3.3.2 0 .5-.1.7-.3 5.1-3.9 10-7.9 14.8-12.2l.1.1c3.9 2.8 8.5 4.4 13.3 4.5.5 0 .9 0 1.4-.1 2.7-.2 5.3-1 7.6-2.4s4.3-3.4 5.5-5.8c1.2-2.5 1.8-5.2 1.8-7.9 0-2.4-.4-4.9-.9-7.2-1.9-7.7-5.4-15-10.2-21.4.1-.1.2-.1.2-.2l25.5-34zM38.2 88.6c-.1.6-.4 1.2-.7 1.7-.4.6-.9 1.1-1.5 1.5-2.3 1.8-5.1 2.8-8 2.8-.6 0-1.2 0-1.7-.1-2-.3-4-1-5.8-2.1-1.9-1.1-3.6-2.5-5.2-4-3.5-3-6.4-6.8-8.4-10.9C5.7 75 5 72.3 5 69.6c-.1-1.9.4-3.7 1.5-5.2.5-.6 1.2-1.1 2-1.5 1-.4 2.1-.6 3.1-.6.7 0 1.4.1 2.1.2 6 1 11.6 3.8 15.9 8.1 4.4 4.2 7.4 9.7 8.5 15.7.1.5.2 1.1.2 1.6-.1.2-.1.4-.1.7zm3-.7c0-.7-.1-1.4-.2-2.1a32 32 0 0 0-9.3-17.3c-4.8-4.7-10.9-7.8-17.5-8.9-.8-.1-1.7-.2-2.5-.2-.4 0-.9 0-1.3.1l12.4-14.8c1.1-1.5 2.5-2.8 4.1-3.7.8-.4 1.8-.6 2.7-.6 2.4.2 4.8.9 6.9 2.2C47 48.4 55 57.8 59.1 69.1c.2.6.4 1.2.4 1.8v.4c-.1.4-.3.7-.5 1-.3.4-.7.8-1.1 1.1-5.3 5-10.9 9.9-16.7 14.5zM79 63.6c.5 2.1.8 4.3.9 6.6.1 2.3-.4 4.5-1.4 6.5-1 1.9-2.6 3.5-4.4 4.6-1.9 1.1-4.1 1.8-6.3 2h-1.2c-4-.1-7.8-1.4-11.1-3.6 1.5-1.4 3.1-2.8 4.6-4.2.5-.5 1-1 1.4-1.5.5-.6.9-1.4 1.1-2.2.1-.3.1-.6.1-1 0-1-.2-1.9-.6-2.8C57.8 56 49.2 46 38 39.9c-2.5-1.5-5.4-2.4-8.3-2.5-1.3 0-2.7.3-3.9.8-2 1.1-3.8 2.6-5.1 4.5L18.8 45c-1.7-2.8-2.6-6-2.5-9.3 0-1.4.1-2.8.4-4.1.4-2.8 1.4-5.5 3.1-7.8 1.4-1.9 3.3-3.3 5.5-4.2 2.3-.9 4.7-1.4 7.2-1.4.8 0 1.7.1 2.5.2 5.7.7 11.1 3.7 16.1 7.1 6.7 4.6 12.7 10.2 17.7 16.7C73.5 48.5 77 55.8 79 63.6zm-9.2-24.5c-2.2-2.7-4.5-5.2-7-7.6C68.7 26.4 75 21.2 81.5 16c4.6-3.6 9.1-7.1 13.5-10.5L69.8 39.1z"/></symbol><symbol viewBox="0 0 320 479" id="question" xmlns="http://www.w3.org/2000/svg"><path d="M204.3 32.01H96c-52.94 0-96 43.06-96 96 0 17.67 14.31 31.1 32 31.1s32-14.32 32-31.1c0-17.64 14.34-32 32-32h108.3c28.5 0 51.7 23.19 51.7 51.79 0 19.72-10.97 37.47-30.5 47.33l-97.7 57.27c-10.7 5.8-15.8 16.3-15.8 27.6v40c0 17.67 14.31 31.99 32 31.99s32-14.32 32-31.99v-21.7l80-47c39.47-19.75 64-59.42 64-103.5 0-63.85-51.9-115.79-115.7-115.79zM144 400c-22.09 0-40 17.91-40 40s17.91 39.1 40 39.1 40-17.9 40-39.1-17.9-40-40-40z"/></symbol><symbol viewBox="0 0 21 32" id="rocket" xmlns="http://www.w3.org/2000/svg"><path d="M10.667 7.467C9.174 7.467 8 8.64 8 10.134s1.173 2.667 2.667 2.667c1.493 0 2.667-1.173 2.667-2.667s-1.173-2.667-2.667-2.667zm0 4.266c-.907 0-1.6-.693-1.6-1.6s.693-1.6 1.6-1.6c.907 0 1.6.693 1.6 1.6s-.693 1.6-1.6 1.6z"/><path d="M16 18.933V9.12c0-2.987-1.973-7.04-5.333-9.12-3.36 2.08-5.333 6.133-5.333 9.173v9.813L.001 25.599h21.333l-5.333-6.667zm-10.667 5.6H2.24l3.093-3.893v3.893zm9.6 0H6.4V9.173c0-2.4 1.493-5.867 4.267-7.893 2.773 2.027 4.267 5.44 4.267 7.893v15.36zM16 20.64l3.093 3.893H16V20.64zm-5.867 6.027H11.2V32h-1.067v-5.333zm2.667 0h1.067v3.2H12.8v-3.2zm-5.333 0h1.067v3.2H7.467v-3.2z"/></symbol><symbol viewBox="0 0 32 32" id="search" xmlns="http://www.w3.org/2000/svg"><path d="m28.591 27.273-7.263-7.264a10.085 10.085 0 0 0 2.339-6.471c0-5.595-4.535-10.129-10.129-10.129-5.594 0-10.129 4.535-10.129 10.129 0 5.594 4.536 10.129 10.129 10.129 2.462 0 4.716-.879 6.471-2.339l7.263 7.264 1.319-1.319zM4.475 13.538c0-4.997 4.065-9.063 9.063-9.063 4.997 0 9.063 4.066 9.063 9.063s-4.066 9.063-9.063 9.063c-4.998 0-9.063-4.066-9.063-9.063z"/></symbol><symbol viewBox="0 0 94 153" id="student" xmlns="http://www.w3.org/2000/svg"><path d="M46.695 151.836a1.81 1.81 0 0 0 1.813-1.813h38.309a1.81 1.81 0 0 0 1.71 1.813h.097a1.81 1.81 0 0 0 1.808-1.717l1.91-36.156c.478-9.056-2.69-17.658-8.929-24.235-6.226-6.566-14.63-10.18-23.673-10.199h-.06c-.097 0-.194.012-.29.025 0 0-.019.005-.03.005a2.607 2.607 0 0 0-.279.073c-.03.012-.06.03-.09.042-.067.025-.133.06-.2.097-.03.018-.066.036-.097.055-.066.048-.133.096-.193.15a.427.427 0 0 0-.06.049 2.075 2.075 0 0 0-.218.242c-.006.012-.012.012-.012.018-.266.369-.55.72-.84 1.058l-8.88 6.202c-.291-.338-13.047-6.891-13.313-7.26 0-.006-.006-.006-.012-.018a2.076 2.076 0 0 0-.217-.242.427.427 0 0 0-.06-.048c-.061-.055-.128-.103-.194-.151-.03-.019-.067-.037-.097-.055a1.506 1.506 0 0 0-.2-.097c-.03-.012-.06-.03-.09-.042a2.36 2.36 0 0 0-.278-.073c-.012 0-.024-.005-.03-.005a2.345 2.345 0 0 0-.29-.025h-.061c-9.044.018-17.447 3.633-23.673 10.199-6.239 6.577-9.406 15.179-8.929 24.235l1.91 36.156a1.815 1.815 0 0 0 1.905 1.717 1.81 1.81 0 0 0 1.71-1.813h38.31a1.81 1.81 0 0 0 1.813 1.813Zm30.092-92.384c0 4.256 2.376 7.593 5.411 7.593 3.035 0 5.41-3.337 5.41-7.593 0-3.36-1.48-6.136-3.597-7.163V25.2c0-.145-.018-.278-.048-.411-.006-.03-.018-.06-.03-.097a1.715 1.715 0 0 0-.121-.308c-.018-.036-.036-.073-.06-.109a1.58 1.58 0 0 0-.212-.284c-.018-.018-.03-.036-.048-.054a1.787 1.787 0 0 0-.333-.266c-.012-.006-.018-.018-.03-.024L47.63 2.258a1.828 1.828 0 0 0-1.874 0L10.26 23.647a1.814 1.814 0 0 0 .06 3.143l15.452 8.524v6.009c-2.533 1.958-3.519 5.894-2.291 9.708.791 2.443 2.375 4.462 4.334 5.586 1.977 8.258 8.96 19.46 17.283 19.46h3.192c8.325 0 15.307-11.202 17.284-19.46 1.958-1.124 3.542-3.143 4.334-5.586 1.233-3.808.242-7.744-2.291-9.702v-6.01l12.767-7.036v24.018c-2.115 1.027-3.597 3.802-3.597 7.163v-.012ZM35.88 42.302a66.931 66.931 0 0 1 21.63 0H35.88Z"/><path d="m4.777 149.551-1.91-36.157c-.931-17.676 13.148-32.523 30.849-32.523l12.99 36.634 12.992-36.634c17.7 0 31.78 14.847 30.849 32.523l-1.91 36.157M27.598 41.831c-2.436 1.203-3.494 4.697-2.376 8.161.768 2.382 2.388 4.165 4.19 4.903 1.595 7.955 8.27 18.885 15.699 18.885h3.192c7.43 0 14.103-10.93 15.7-18.885 1.807-.738 3.42-2.521 4.189-4.903 1.118-3.464.054-6.958-2.376-8.16M27.598 33.76l-16.395-9.037L46.707 3.335l35.497 21.388-16.388 9.038"/><path d="M65.816 25.902a69.028 69.028 0 0 0-38.218 0V41.83a69.028 69.028 0 0 1 38.218 0V25.859v.043Zm16.388-1.179V52.47m3.597 6.505c0 3.192-1.608 5.78-3.597 5.78-1.988 0-3.597-2.588-3.597-5.78 0-3.191 1.609-5.779 3.597-5.779 1.99 0 3.597 2.588 3.597 5.78ZM33.715 80.871c6.372 8.899 19.605 8.899 25.977 0M2.867 113.394l43.84 12.296 43.834-12.296m-43.835 36.157v-32.046"/></symbol><symbol viewBox="0 0 123 139" id="studing" xmlns="http://www.w3.org/2000/svg"><path d="M120.845 64.18a58.686 58.686 0 0 0-1.816-10.071l1.609-1.61c.276-.275.428-.654.428-1.042 0-.389-.152-.768-.428-1.043l-4.487-4.488a56.208 56.208 0 0 0-1.456-3.1v-24.51s-.005-.01-.005-.015c0-.01.005-.015.005-.024a1.946 1.946 0 0 0-.03-.246l-.015-.06a1.978 1.978 0 0 0-.064-.196c-.01-.03-.024-.054-.039-.084a1.472 1.472 0 0 0-.079-.152c-.019-.025-.034-.055-.054-.08a1.05 1.05 0 0 0-.118-.142c-.015-.02-.029-.04-.049-.054a1.64 1.64 0 0 0-.202-.167.226.226 0 0 1-.034-.02 1.18 1.18 0 0 0-.286-.138c-.034-.014-.064-.03-.098-.039L62.094 2.059a1.442 1.442 0 0 0-.817 0L9.744 16.898a1.485 1.485 0 0 0-1.067 1.378 1.487 1.487 0 0 0 .993 1.436l13.516 4.694a59.037 59.037 0 0 0-6.603 6.568c-.364.04-.708.217-.964.522C6.836 42.148 2 55.629 2 69.454c0 12.207 3.66 23.942 10.578 33.939 6.765 9.767 16.158 17.23 27.16 21.585a1.4 1.4 0 0 0 .196.059 58.743 58.743 0 0 0 11.44 3.208c.368 1.544.55 2.897.644 4.078.236 2.987 2.656 5.235 5.628 5.235h8.079c2.972 0 5.392-2.248 5.634-5.235a26.46 26.46 0 0 1 .644-4.088 58.759 58.759 0 0 0 11.336-3.174 1.63 1.63 0 0 0 .295-.083c24.355-9.634 39.459-33.718 37.58-59.922a1.462 1.462 0 0 0-.369-.876Zm-9.102-43.789v17.285a59.57 59.57 0 0 0-11.587-13.26l11.587-4.025Z"/><path d="M119.753 64.775c1.894 26.416-13.85 49.423-36.655 58.446m-42.806.001c-21.56-8.527-36.807-29.56-36.807-54.15a57.97 57.97 0 0 1 13.285-37.02m12.694-7.42V50.27l29.732 10.323c1.619.56 3.38.56 4.999 0L93.927 50.27V24.632"/><path d="m10.162 17.93 51.533 17.89 51.533-17.89L61.695 3.093 10.162 17.93Zm103.066 26.767V17.932m-.005 26.776-6.373 6.373 6.373 6.374 6.374-6.374-6.374-6.373Zm-51.527 90.991h-4.04c-2.19 0-3.985-1.693-4.157-3.877-.487-6.052-2.938-14.588-15.297-27.838 0 0 3.818-14.869-1.23-51.11"/><path d="M61.695 135.699h4.04c2.19 0 3.985-1.693 4.157-3.877.487-6.052 2.938-14.588 15.297-27.838 0 0-3.818-14.869 1.23-51.11M61.695 87.532a3.823 3.823 0 1 0 0-7.646 3.823 3.823 0 0 0 0 7.646Zm0-.001V135.7"/></symbol><symbol viewBox="0 0 183 113" id="study_hat" xmlns="http://www.w3.org/2000/svg"><path d="m83.21 70.422-38.1-16.05v29.962a5.49 5.49 0 0 0 2.308 4.483c6.716 4.77 26.905 17.888 44.618 17.019 17.712.869 37.895-12.249 44.617-17.02a5.498 5.498 0 0 0 2.309-4.482V54.597L91.339 70.722a11.44 11.44 0 0 1-8.122-.294l-.007-.006Zm-56 8.058c1.873 0 3.392-3.583 3.392-8.003s-1.518-8.003-3.392-8.003c-1.873 0-3.392 3.583-3.392 8.003s1.519 8.003 3.392 8.003Z"/><path d="M23.961 75.391a8.699 8.699 0 0 0-2.178 3.14c-.728 1.781-.797 3.763-.38 5.639.878 3.989 2.577 14.099-1.076 20.108-.48.787.429 1.713 1.226 1.256 4.43-2.557 10.686-8.103 10.686-19.05 0 0 .404-5.415-.977-9.242-1.102-3.051-4.911-4.045-7.307-1.857l.006.006Zm154.857-37.477L99.622 4.051a11.463 11.463 0 0 0-8.265-.287L4.295 33.988c-1.525.531-1.593 2.676-.106 3.301L25.1 46.092v18.97h4.22V47.868l.946.4 6.043 2.557L83.1 70.54a11.44 11.44 0 0 0 8.121.294l87.461-29.611c1.531-.52 1.618-2.67.125-3.302l.012-.006Z"/><path d="m83.21 70.422-38.1-16.05v29.962a5.49 5.49 0 0 0 2.308 4.483c6.716 4.77 26.905 17.888 44.618 17.019 17.712.869 37.895-12.249 44.617-17.02a5.498 5.498 0 0 0 2.309-4.482V54.597L91.339 70.722a11.44 11.44 0 0 1-8.122-.294l-.007-.006Zm-56 8.058c1.873 0 3.392-3.583 3.392-8.003s-1.518-8.003-3.392-8.003c-1.873 0-3.392 3.583-3.392 8.003s1.519 8.003 3.392 8.003Z"/><path d="M23.961 75.391a8.699 8.699 0 0 0-2.178 3.14c-.728 1.781-.797 3.763-.38 5.639.878 3.989 2.577 14.099-1.076 20.108-.48.787.429 1.713 1.226 1.256 4.43-2.557 10.686-8.103 10.686-19.05 0 0 .404-5.415-.977-9.242-1.102-3.051-4.911-4.045-7.307-1.857l.006.006ZM178.818 37.914 99.622 4.051a11.463 11.463 0 0 0-8.265-.287L4.295 33.988c-1.525.531-1.593 2.676-.106 3.301L25.1 46.092v18.97h4.22V47.868l.946.4 6.043 2.557L83.1 70.54a11.44 11.44 0 0 0 8.121.294l87.461-29.611c1.531-.52 1.618-2.67.125-3.302l.012-.006Z"/></symbol><symbol viewBox="0 0 463 457" id="subscribe_alarm" xmlns="http://www.w3.org/2000/svg"><path d="M323.443 55.467H188.557a48.058 48.058 0 0 0-48.003 48.004v305.058a48.058 48.058 0 0 0 48.003 48.004h134.886a48.058 48.058 0 0 0 48.003-48.004V103.471a48.058 48.058 0 0 0-48.003-48.004Zm-134.886 16h134.886a32.04 32.04 0 0 1 32.003 32.004v275.896H156.554V103.47a32.04 32.04 0 0 1 32.003-32.004Zm41.54 342.283a8 8 0 0 1 8-8h35.807a8 8 0 0 1 0 16h-35.807a8 8 0 0 1-8-8Zm185.045-215.149a8 8 0 0 0-11.313 11.314 31.837 31.837 0 0 1 0 44.974 8 8 0 1 0 11.313 11.313 47.855 47.855 0 0 0 0-67.6Z"/><path d="M442.137 181.606a8 8 0 0 0-11.313 11.314 55.9 55.9 0 0 1 0 78.964 8 8 0 1 0 11.313 11.313 71.917 71.917 0 0 0 0-101.59Zm-333.966 18.07a8 8 0 0 0-11.313 0 47.855 47.855 0 0 0 0 67.601 8 8 0 1 0 11.313-11.313 31.838 31.838 0 0 1 0-44.974 8 8 0 0 0 0-11.314Z"/><path d="M81.176 193.995a8 8 0 0 0-11.313-11.314 71.917 71.917 0 0 0 0 101.591 8 8 0 1 0 11.313-11.313 55.9 55.9 0 0 1 0-78.964ZM181.601 312.29h40.339a35.084 35.084 0 0 0 68.12 0h40.339a8 8 0 0 0 5.829-13.479 81.92 81.92 0 0 1-21.893-63.217l.993-11.296a60.23 60.23 0 0 0-31.434-63.563 30.514 30.514 0 1 0-55.788 0 60.23 60.23 0 0 0-31.435 63.563l.993 11.296a81.92 81.92 0 0 1-21.892 63.218 8 8 0 0 0 5.829 13.479Zm16.432-16a97.947 97.947 0 0 0 9.801-19.486h96.332a97.947 97.947 0 0 0 9.801 19.487Zm43.453-147.901a14.514 14.514 0 0 1 29.028 0 14.374 14.374 0 0 1-1.733 6.847 59.924 59.924 0 0 0-25.562 0 14.374 14.374 0 0 1-1.733-6.847ZM256 169.857a44.243 44.243 0 0 1 43.513 52q-.062.349-.093.7l-1.023 11.636a97.655 97.655 0 0 0 1.33 26.611h-87.455a97.655 97.655 0 0 0 1.331-26.61l-1.023-11.636q-.03-.352-.093-.7A44.243 44.243 0 0 1 256 169.857Z"/></symbol><symbol viewBox="0 0 160 125" id="teacher" xmlns="http://www.w3.org/2000/svg"><path d="M156.532 2.006H61.966c-1.003 0-1.813.81-1.813 1.814v33.93H27.399c-9.581 0-17.38 7.799-17.38 17.38v21.62c0 4.63 3.325 8.5 7.708 9.352v34.114H2.814c-1.004 0-1.814.81-1.814 1.813 0 1.004.81 1.814 1.814 1.814h151.904c1.004 0 1.814-.81 1.814-1.814 0-1.003-.81-1.813-1.814-1.813H50.795V56.588h9.358v25.928c0 1.004.81 1.814 1.813 1.814h94.566a1.81 1.81 0 0 0 1.813-1.814V3.814A1.81 1.81 0 0 0 156.532 2v.006Z"/><path d="M34.243 32.431c8.013 0 14.508-6.495 14.508-14.508 0-8.013-6.495-14.509-14.508-14.509-8.013 0-14.509 6.496-14.509 14.509S26.23 32.43 34.243 32.43Z"/><path d="M61.978 38.876V3.342h94.566v78.703H61.978V54.303M34.255 30.147c7.01 0 12.694-5.684 12.694-12.695S41.267 4.757 34.255 4.757c-7.012 0-12.695 5.684-12.695 12.695s5.683 12.695 12.695 12.695Z"/><path d="M19.552 121.556V83.985a7.709 7.709 0 0 1-7.707-7.708V54.659c0-8.596 6.97-15.566 15.566-15.566h53.32a1.81 1.81 0 0 1 1.813 1.813v.708c0 7.012-5.683 12.695-12.695 12.695H48.987v67.253M34.255 84.97v36.586m-31.43.001H154.73M82.023 39.626l21.6-11.172m12.545 20.076h26.025m-26.025 11.667h15.905m-15.905-35.002h26.025m-26.025 11.668h15.905"/></symbol><symbol xml:space="preserve" viewBox="0 0 512 512" id="twitter" xmlns="http://www.w3.org/2000/svg"><path d="M492 109.5c-17.4 7.7-36 12.9-55.6 15.3 20-12 35.4-31 42.6-53.6-18.7 11.1-39.4 19.2-61.5 23.5C399.8 75.8 374.6 64 346.8 64c-53.5 0-96.8 43.4-96.8 96.9 0 7.6.8 15 2.5 22.1-80.5-4-151.9-42.6-199.6-101.3-8.3 14.3-13.1 31-13.1 48.7 0 33.6 17.1 63.3 43.1 80.7C67 210.7 52 206.3 39 199v1.2c0 47 33.4 86.1 77.7 95-8.1 2.2-16.7 3.4-25.5 3.4-6.2 0-12.3-.6-18.2-1.8 12.3 38.5 48.1 66.5 90.5 67.3-33.1 26-74.9 41.5-120.3 41.5-7.8 0-15.5-.5-23.1-1.4C62.9 432 113.8 448 168.4 448 346.6 448 444 300.3 444 172.2c0-4.2-.1-8.4-.3-12.5 18.9-13.7 35.3-30.8 48.3-50.2z"/></symbol></svg>